<svg width="40" height="40" viewBox="0 0 40 40" fill="none" xmlns="http://www.w3.org/2000/svg">
    <g clip-path="url(#lg0y50mkwa)">
        <path d="M0 20C0 8.954 8.954 0 20 0s20 8.954 20 20-8.954 20-20 20S0 31.046 0 20z" fill="#fff"/>
        <path d="M20 13.44c2.137 0 2.39.01 3.231.048.781.034 1.203.165 1.485.274.371.144.64.32.918.597.282.282.453.547.597.92.11.28.24.705.275 1.483.038.844.047 1.097.047 3.232 0 2.137-.01 2.39-.047 3.231-.034.781-.165 1.203-.275 1.484-.144.372-.319.641-.597.92a2.46 2.46 0 0 1-.918.596c-.282.11-.707.24-1.485.275-.844.038-1.097.047-3.231.047-2.137 0-2.39-.01-3.231-.047-.781-.034-1.203-.166-1.485-.275a2.473 2.473 0 0 1-.918-.597 2.46 2.46 0 0 1-.597-.919c-.11-.28-.24-.706-.275-1.484-.038-.844-.047-1.097-.047-3.231 0-2.138.01-2.39.047-3.232.034-.78.165-1.203.275-1.484.143-.372.319-.64.597-.919.28-.28.546-.453.918-.597.282-.109.707-.24 1.485-.274.84-.038 1.094-.047 3.231-.047zM20 12c-2.172 0-2.444.01-3.297.047-.85.037-1.434.175-1.94.372a3.905 3.905 0 0 0-1.42.925c-.446.444-.718.89-.924 1.415-.197.51-.335 1.091-.372 1.941-.038.856-.047 1.128-.047 3.3 0 2.172.01 2.444.047 3.297.037.85.175 1.434.372 1.94.206.529.478.976.925 1.42.444.443.89.718 1.415.921.51.197 1.091.335 1.941.372.853.038 1.125.047 3.297.047s2.444-.01 3.297-.047c.85-.037 1.434-.175 1.94-.372a3.91 3.91 0 0 0 1.416-.922 3.91 3.91 0 0 0 .922-1.415c.197-.51.334-1.091.372-1.941.037-.853.047-1.125.047-3.297s-.01-2.444-.047-3.297c-.038-.85-.175-1.434-.372-1.94a3.748 3.748 0 0 0-.916-1.422 3.91 3.91 0 0 0-1.415-.922c-.51-.197-1.091-.335-1.941-.372-.856-.04-1.128-.05-3.3-.05z" fill="#ED2027"/>
        <path d="M20 15.89a4.11 4.11 0 0 0 0 8.22 4.11 4.11 0 0 0 0-8.22zm0 6.776a2.666 2.666 0 1 1 0-5.332 2.666 2.666 0 0 1 0 5.332zM25.231 15.728a.96.96 0 1 1-1.919 0 .96.96 0 0 1 1.92 0z" fill="#ED2027"/>
    </g>
    <defs>
        <clipPath id="lg0y50mkwa">
            <path d="M0 20C0 8.954 8.954 0 20 0s20 8.954 20 20-8.954 20-20 20S0 31.046 0 20z" fill="#fff"/>
        </clipPath>
    </defs>
</svg>
