<svg width="36" height="36" viewBox="0 0 36 36" fill="none" xmlns="http://www.w3.org/2000/svg">
    <g clip-path="url(#d1pdpq6mea)">
        <path d="M31.706 28.127a18.927 18.927 0 0 1-1.872 3.364c-.984 1.403-1.79 2.374-2.41 2.914-.963.885-1.995 1.338-3.099 1.364-.793 0-1.749-.225-2.862-.683-1.117-.456-2.143-.681-3.081-.681-.984 0-2.04.225-3.168.68-1.131.459-2.042.697-2.738.72-1.06.046-2.115-.42-3.169-1.4-.672-.587-1.513-1.592-2.52-3.017-1.082-1.521-1.971-3.285-2.667-5.296C3.374 23.92 3 21.816 3 19.779c0-2.332.504-4.344 1.514-6.03a8.879 8.879 0 0 1 3.17-3.207 8.528 8.528 0 0 1 4.286-1.21c.841 0 1.944.26 3.315.772 1.367.513 2.245.773 2.63.773.287 0 1.262-.304 2.915-.91 1.563-.563 2.883-.796 3.963-.704 2.929.236 5.13 1.39 6.592 3.47-2.619 1.588-3.914 3.81-3.889 6.662.024 2.22.83 4.069 2.413 5.537a7.93 7.93 0 0 0 2.411 1.58c-.193.562-.398 1.099-.614 1.614zm-6.717-26.43c0 1.74-.636 3.366-1.904 4.87-1.53 1.789-3.38 2.822-5.387 2.659a5.413 5.413 0 0 1-.04-.66c0-1.67.728-3.46 2.02-4.922.645-.74 1.465-1.356 2.46-1.847.992-.484 1.931-.751 2.814-.797.026.233.037.465.037.696z" fill="#fff"/>
    </g>
    <defs>
        <clipPath id="d1pdpq6mea">
            <path fill="#fff" transform="translate(3 1)" d="M0 0h29.32v34.809H0z"/>
        </clipPath>
    </defs>
</svg>
