<svg width="36" height="36" viewBox="0 0 36 36" fill="none" xmlns="http://www.w3.org/2000/svg">
    <g clip-path="url(#qvh5hvvhva)" fill="#fff">
        <path d="M5.228 10.661a2.15 2.15 0 0 0-1.579.649A2.124 2.124 0 0 0 3 12.868v9.302c0 .621.216 1.147.649 1.58a2.15 2.15 0 0 0 1.58.649c.619 0 1.142-.216 1.568-.649.425-.433.638-.959.638-1.58v-9.302c0-.606-.216-1.125-.649-1.558a2.125 2.125 0 0 0-1.558-.649zM23.142 2.31l1.536-2.834c.101-.187.065-.331-.108-.432-.187-.088-.331-.043-.432.129L22.58 2.029c-1.37-.606-2.82-.91-4.348-.91-1.53 0-2.979.304-4.349.91L12.325-.827c-.1-.172-.245-.216-.432-.13-.174.102-.21.246-.108.433L13.32 2.31c-1.558.794-2.798 1.9-3.721 3.321a8.388 8.388 0 0 0-1.385 4.662h20.012a8.39 8.39 0 0 0-1.385-4.662c-.923-1.42-2.157-2.527-3.7-3.321zm-8.88 4.121a.811.811 0 0 1-.596.25.774.774 0 0 1-.584-.25.829.829 0 0 1-.238-.594c0-.231.08-.429.238-.595a.777.777 0 0 1 .584-.249c.231 0 .43.083.595.249a.814.814 0 0 1 .25.595.815.815 0 0 1-.25.594zm9.118 0a.776.776 0 0 1-.584.25.81.81 0 0 1-.595-.25.81.81 0 0 1-.249-.594c0-.231.083-.429.249-.595a.812.812 0 0 1 .595-.249c.23 0 .425.083.584.249a.831.831 0 0 1 .238.595.83.83 0 0 1-.238.594zM8.3 25.48c0 .664.231 1.226.692 1.688a2.297 2.297 0 0 0 1.688.691h1.601l.022 4.912c0 .62.216 1.147.649 1.58.432.432.952.648 1.557.648a2.15 2.15 0 0 0 1.58-.649 2.15 2.15 0 0 0 .649-1.579V27.86h2.985v4.911c0 .62.216 1.147.649 1.58.433.432.959.648 1.58.648a2.15 2.15 0 0 0 1.578-.649 2.15 2.15 0 0 0 .65-1.579V27.86h1.622c.649 0 1.204-.23 1.666-.692a2.296 2.296 0 0 0 .692-1.688V11.071H8.3V25.48zM31.233 10.661c-.607 0-1.125.213-1.558.638a2.116 2.116 0 0 0-.65 1.569v9.302c0 .621.217 1.147.65 1.58.433.433.952.649 1.558.649a2.15 2.15 0 0 0 1.579-.649c.432-.433.649-.959.649-1.58v-9.302c0-.62-.217-1.143-.65-1.569a2.17 2.17 0 0 0-1.578-.638z"/>
    </g>
    <defs>
        <clipPath id="qvh5hvvhva">
            <path fill="#fff" d="M0 0h36v36H0z"/>
        </clipPath>
    </defs>
</svg>
