<svg width="142" height="44" viewBox="0 0 142 44" fill="none" xmlns="http://www.w3.org/2000/svg">
    <rect width="142" height="44" rx="8" fill="#fff"/>
    <path d="M23.02 23.317v-3.2a1.483 1.483 0 1 1 2.96-.014v5.9a4.427 4.427 0 0 0 5.855 4.107 3.463 3.463 0 0 0 1.506-5.592c-.934-1.066-1.858-2.156-2.785-3.233a1.86 1.86 0 0 1-.433-.806 1.598 1.598 0 0 1 1.449-1.965c1.6-.032 3.2-.025 4.785 0a1.517 1.517 0 0 1 1.513 1.506 1.483 1.483 0 0 1-1.531 1.467h-.973c-.224 0-.448 0-.551.249-.103.249.039.377.174.54a8.902 8.902 0 0 1 1.844 3.34 5.58 5.58 0 0 1-2.251 6.117 6.933 6.933 0 0 1-7.24.764 6.75 6.75 0 0 1-4.3-5.752 31.584 31.584 0 0 1 0-3.432l-.021.004zM45.855 28.653c-.6.036-1.123.046-1.641.1a5.049 5.049 0 1 1-.53-10.072 4.821 4.821 0 0 1 4.975 4.544 33.096 33.096 0 0 1 0 4.821 5.251 5.251 0 0 1-5.283 4.89h-.973a1.343 1.343 0 0 1-.078-2.669 7.606 7.606 0 0 0 2.132-.448 2.71 2.71 0 0 0 1.398-1.166zm-4.192-4.95a2.1 2.1 0 1 0 4.2 0 2.1 2.1 0 0 0-4.2 0zM67.551 19.857v-6.189a2.31 2.31 0 0 1 .085-.782 1.369 1.369 0 0 1 1.34-.885 1.332 1.332 0 0 1 1.235 1.01c.045.21.065.426.06.642v12.023a2.188 2.188 0 1 0 4.37.107V21.14a1.318 1.318 0 0 1 1.194-1.314 1.354 1.354 0 0 1 1.44.927c.037.115.056.235.056.355 0 1.592.025 3.2 0 4.778a4.9 4.9 0 0 1-5.759 4.768 4.79 4.79 0 0 1-3.983-4.459c-.082-2.132-.018-4.235-.018-6.356l-.02.02zM82.36 21.516v7.844a1.385 1.385 0 0 1-2.754.3 1.586 1.586 0 0 1 0-.185V13.551a1.374 1.374 0 0 1 1.76-1.371 1.409 1.409 0 0 1 1.004 1.492l-.01 7.844zM57.944 24.497a6.49 6.49 0 0 1-.355 2.913 5.24 5.24 0 0 1-4.622 3.26c-.402.024-.805.024-1.208 0a1.299 1.299 0 0 1-1.332-1.306 1.33 1.33 0 0 1 1.311-1.393 5.631 5.631 0 0 0 2.366-.572 1.9 1.9 0 0 0 1.123-1.858c0-.48-.032-.963 0-1.44a2.463 2.463 0 0 0-3.066-2.6 1.379 1.379 0 0 1-1.748-1.385 1.261 1.261 0 0 1 .8-1.194 4.912 4.912 0 0 1 6.722 4.07c.032.513.01 1.007.01 1.505zM65.195 24.12v3.62a5.276 5.276 0 0 1-5.115 5.262h-1.3a1.368 1.368 0 0 1-.058-2.732 6.715 6.715 0 0 0 2.392-.476 2.082 2.082 0 0 0 1.357-2.121v-7.614a1.354 1.354 0 0 1 2.458-.846c.19.267.283.59.266.917v3.99zM36.549 14.84a1.386 1.386 0 1 1-2.77-.137 1.386 1.386 0 0 1 2.77.138zM75.836 13.388a1.385 1.385 0 1 1 .03 2.77 1.385 1.385 0 0 1-.03-2.77z" fill="#000"/>
    <path d="M104.754 37.256a13.638 13.638 0 0 1-4.654-26.47c.774-.278.81-.335.711-1.145-.075-.565-.146-1.133-.227-1.7-.028-.21-.032-.412.163-.54a.494.494 0 0 1 .6.09c.355.255.711.493 1.066.752a.494.494 0 0 0 .363.139.49.49 0 0 0 .348-.17c.38-.356.785-.658 1.158-1.006a.535.535 0 0 1 .842 0c.373.355.782.661 1.158 1.005a.508.508 0 0 0 .363.18.495.495 0 0 0 .376-.148c.309-.234.632-.448.945-.67.206-.147.412-.324.675-.168.263.156.2.423.163.668-.082.615-.149 1.23-.242 1.84-.064.444.107.664.533.821a13.385 13.385 0 0 1 8.963 10.274 13.634 13.634 0 0 1-10.552 15.987 12.23 12.23 0 0 1-2.752.261zm-3.368-13.234a29.19 29.19 0 0 0 .746 6.274 10.505 10.505 0 0 0 1.776 4.09 3.106 3.106 0 0 0 2.721 1.306 9.514 9.514 0 0 0 8.1-4.562 14.037 14.037 0 0 0 1.071-13.074 9.636 9.636 0 0 0-8.527-6.487 3.52 3.52 0 0 0-3.688 1.7c-.406.66-.742 1.362-1 2.093a26.844 26.844 0 0 0-1.199 8.658v.002z" fill="#F62E11"/>
    <path d="M101.386 24.02a26.45 26.45 0 0 1 1.208-8.665c.255-.728.586-1.427.988-2.085a3.514 3.514 0 0 1 3.688-1.7 9.653 9.653 0 0 1 8.526 6.487 13.978 13.978 0 0 1-1.066 13.078 9.514 9.514 0 0 1-8.1 4.562 3.099 3.099 0 0 1-2.721-1.307 10.506 10.506 0 0 1-1.776-4.089 29.19 29.19 0 0 1-.743-6.28h-.004zm14.122.277a14.665 14.665 0 0 0-.941-5.883c-1.187-2.93-3.2-4.935-6.423-5.443a2.9 2.9 0 0 0-2.64.416 5.605 5.605 0 0 0-1.421 2.132 21.479 21.479 0 0 0-1.272 7.017 27.471 27.471 0 0 0 .16 4.263 18.328 18.328 0 0 0 1.158 5.027c.732 1.776 1.95 2.8 3.8 2.487a7.953 7.953 0 0 0 5.464-3.3 12.028 12.028 0 0 0 2.11-6.725l.005.01z" fill="#FEFCFB"/>
    <path d="M115.507 24.284a12.023 12.023 0 0 1-2.132 6.715 7.947 7.947 0 0 1-5.461 3.317c-1.854.295-3.073-.71-3.8-2.487a18.321 18.321 0 0 1-1.169-5.04 27.471 27.471 0 0 1-.16-4.264 21.48 21.48 0 0 1 1.272-7.016 5.594 5.594 0 0 1 1.421-2.133 2.934 2.934 0 0 1 2.64-.415c3.229.508 5.237 2.511 6.423 5.443a14.246 14.246 0 0 1 .966 5.88zm-8.278-7.39a1.551 1.551 0 0 0 .437 1.11 1.55 1.55 0 0 0 1.098.466 1.582 1.582 0 0 0 1.49-.947 1.584 1.584 0 0 0-.321-1.736 1.58 1.58 0 0 0-1.73-.352 1.573 1.573 0 0 0-.974 1.472v-.014zm1.543 14.872a1.56 1.56 0 0 0 1.581-1.581 1.575 1.575 0 0 0-.45-1.109 1.574 1.574 0 0 0-1.103-.465 1.56 1.56 0 0 0-1.45.955c-.08.19-.122.392-.123.598a1.537 1.537 0 0 0 .421 1.143 1.523 1.523 0 0 0 1.124.473v-.015zm2.963-13.48a1.372 1.372 0 1 1 0 .014v-.014zm-.032 10.615a1.351 1.351 0 0 0 1.244-.844 1.352 1.352 0 0 0-1.78-1.757 1.349 1.349 0 0 0-.828 1.255 1.347 1.347 0 0 0 1.367 1.346h-.003zm2.331-5.247a1.345 1.345 0 0 0-.39-.955 1.336 1.336 0 0 0-.953-.395 1.355 1.355 0 1 0 .018 2.69 1.305 1.305 0 0 0 .948-.39 1.322 1.322 0 0 0 .377-.953v.003zm-6.7-3.119a1.36 1.36 0 0 0-.396-.96 1.358 1.358 0 0 0-.961-.393 1.37 1.37 0 1 0 1.357 1.35v.003zm0 6.288a1.353 1.353 0 0 0-1.354-1.35 1.376 1.376 0 0 0-1.241 1.896 1.333 1.333 0 0 0 1.262.823 1.307 1.307 0 0 0 1.332-1.372l.001.003zm1.368-1.83a1.319 1.319 0 0 0 1.343-1.345 1.34 1.34 0 0 0-2.307-.935 1.368 1.368 0 0 0-.393.956 1.346 1.346 0 0 0 1.359 1.325h-.002z" fill="#FAB7AE"/>
    <path d="M107.229 16.908a1.541 1.541 0 0 1 1.273-1.488 1.545 1.545 0 1 1-1.273 1.488zM108.775 31.779a1.527 1.527 0 0 1-1.545-1.6 1.571 1.571 0 0 1 .465-1.103 1.575 1.575 0 0 1 1.109-.45 1.563 1.563 0 0 1 1.552 1.573 1.565 1.565 0 0 1-.457 1.125 1.552 1.552 0 0 1-1.124.456v-.002zM111.739 18.3a1.36 1.36 0 1 1-.077 2.719 1.36 1.36 0 0 1 .077-2.719zM111.706 28.901a1.354 1.354 0 1 1 .034-2.707 1.354 1.354 0 0 1-.034 2.707zM114.036 23.65a1.314 1.314 0 0 1-1.325 1.344 1.356 1.356 0 0 1-1.361-1.599 1.356 1.356 0 0 1 2.686.242v.014zM107.337 20.532a1.35 1.35 0 1 1-2.699 0 1.35 1.35 0 0 1 2.699 0zM107.337 26.82a1.301 1.301 0 0 1-1.332 1.371 1.337 1.337 0 0 1-1.364-1.33 1.375 1.375 0 0 1 1.343-1.375 1.353 1.353 0 0 1 1.354 1.332l-.001.001zM108.705 24.994a1.35 1.35 0 0 1-1.261-.819 1.351 1.351 0 0 1-.107-.517 1.368 1.368 0 0 1 1.868-1.269 1.34 1.34 0 0 1 .843 1.26 1.3 1.3 0 0 1-.095.518 1.307 1.307 0 0 1-.729.732 1.322 1.322 0 0 1-.519.095z" fill="#F73013"/>
</svg>
