<svg width="66" height="66" viewBox="0 0 66 66" fill="none" xmlns="http://www.w3.org/2000/svg">
    <circle cx="33" cy="33" r="32" stroke="#1ECAD3" stroke-width="2"/>
    <path opacity=".4" d="M43.605 22.425c5.955 5.955 5.85 15.675-.3 21.51-5.685 5.385-14.91 5.385-20.61 0-6.165-5.835-6.27-15.555-.3-21.51 5.85-5.865 15.36-5.865 21.21 0z" fill="#1ECAD3"/>
    <path opacity=".4" d="M40.072 25.937c3.97 3.978 3.902 10.472-.2 14.371-3.783 3.589-9.942 3.59-13.736 0-4.112-3.9-4.181-10.392-.201-14.37l.001-.001c3.9-3.916 10.237-3.916 14.136 0z" stroke="#1ECAD3" stroke-width="2"/>
    <path opacity=".4" d="M36.537 29.469a5.02 5.02 0 0 1-.1 7.182c-1.895 1.798-4.97 1.798-6.87 0a5.01 5.01 0 0 1-.1-7.182 4.988 4.988 0 0 1 7.07 0z" fill="#1ECAD3"/>
</svg>
