<svg width="66" height="66" viewBox="0 0 66 66" fill="none" xmlns="http://www.w3.org/2000/svg">
    <circle cx="33" cy="33" r="32" stroke="#1ECAD3" stroke-width="2"/>
    <path opacity=".4" d="M44.955 30v12c0 4.5-1.5 6-6 6h-12c-4.5 0-6-1.5-6-6V30h24z" fill="#1ECAD3"/>
    <path d="M47.25 25.5V27c0 1.65-.795 3-3 3h-22.5c-2.295 0-3-1.35-3-3v-1.5c0-1.65.705-3 3-3h22.5c2.205 0 3 1.35 3 3z" fill="#1ECAD3"/>
    <path opacity=".4" d="M32.46 22.5h-8.28a1.405 1.405 0 0 1 .045-1.95l2.13-2.13a1.44 1.44 0 0 1 2.025 0l4.08 4.08zM41.805 22.5h-8.28l4.08-4.08a1.44 1.44 0 0 1 2.025 0l2.13 2.13c.54.54.555 1.395.045 1.95z" fill="#1ECAD3"/>
    <path opacity=".6" d="M28.41 30v7.71c0 1.2 1.32 1.905 2.325 1.26l1.41-.93c.51-.33 1.155-.33 1.65 0l1.335.9c.99.66 2.325-.045 2.325-1.245V30H28.41z" fill="#1ECAD3"/>
</svg>
