<svg width="142" height="44" viewBox="0 0 142 44" fill="none" xmlns="http://www.w3.org/2000/svg">
    <rect width="142" height="44" rx="8" fill="#fff"/>
    <path fill-rule="evenodd" clip-rule="evenodd" d="M14.462 9.548c-.291.308-.462.785-.462 1.404V33.05c0 .619.171 1.096.462 1.404l.074.072 12.379-12.38v-.291L14.536 9.475l-.074.073z" fill="#00D7FE"/>
    <mask id="2mguyvslga" style="mask-type:alpha" maskUnits="userSpaceOnUse" x="26" y="17" width="12" height="10">
        <path d="m31.04 26.274-4.125-4.128v-.291l4.127-4.128 4.982 2.83c1.396.795 1.396 2.093 0 2.886l-4.889 2.777-.095.055z" fill="#fff"/>
    </mask>
    <g mask="url(#2mguyvslga)">
        <path fill-rule="evenodd" clip-rule="evenodd" d="m31.04 26.274-4.125-4.128v-.291l4.127-4.128 4.982 2.83c1.396.795 1.396 2.093 0 2.886l-4.889 2.777-.095.055z" fill="url(#gc93sm913b)"/>
    </g>
    <mask id="feqg2vnhxc" style="mask-type:alpha" maskUnits="userSpaceOnUse" x="14" y="22" width="18" height="13">
        <path d="M31.135 26.22 26.915 22 14.462 34.453c.46.487 1.22.547 2.077.061l14.596-8.294z" fill="#fff"/>
    </mask>
    <g mask="url(#feqg2vnhxc)">
        <path fill-rule="evenodd" clip-rule="evenodd" d="M31.135 26.22 26.915 22 14.462 34.453c.46.487 1.22.547 2.077.061l14.596-8.294z" fill="url(#gzt9s3uaxd)"/>
    </g>
    <mask id="jtztdvos0e" style="mask-type:alpha" maskUnits="userSpaceOnUse" x="14" y="9" width="18" height="13">
        <path d="M31.135 17.78 16.539 9.486c-.856-.486-1.616-.426-2.077.061L26.915 22l4.22-4.22z" fill="#fff"/>
    </mask>
    <g mask="url(#jtztdvos0e)">
        <path fill-rule="evenodd" clip-rule="evenodd" d="M31.135 17.78 16.539 9.486c-.856-.486-1.616-.426-2.077.061L26.915 22l4.22-4.22z" fill="url(#x8s4l7rg3f)"/>
    </g>
    <path fill-rule="evenodd" clip-rule="evenodd" d="M108.964 28.953h1.866V16.452h-1.866v12.501zm16.807-7.998-2.139 5.42h-.064l-2.22-5.42h-2.01l3.329 7.575-1.898 4.214h1.947l5.13-11.789h-2.075zm-10.582 6.578c-.612 0-1.464-.305-1.464-1.061 0-.965 1.062-1.335 1.978-1.335.821 0 1.206.177 1.705.418a2.262 2.262 0 0 1-2.219 1.978zm.225-6.851c-1.351 0-2.75.595-3.329 1.914l1.656.691c.354-.691 1.013-.917 1.705-.917.965 0 1.946.579 1.962 1.609v.128c-.338-.193-1.061-.482-1.946-.482-1.785 0-3.603.981-3.603 2.814 0 1.673 1.464 2.751 3.104 2.751 1.255 0 1.946-.563 2.381-1.223h.064v.965h1.801V24.14c0-2.22-1.656-3.458-3.795-3.458zm-11.532 1.795h-2.654v-4.285h2.654c1.395 0 2.187 1.155 2.187 2.142 0 .969-.792 2.143-2.187 2.143zm-.048-6.025h-4.47v12.501h1.864v-4.736h2.606c2.068 0 4.101-1.498 4.101-3.883s-2.033-3.882-4.101-3.882zm-24.38 11.083c-1.29 0-2.369-1.079-2.369-2.561 0-1.498 1.08-2.594 2.368-2.594 1.273 0 2.271 1.096 2.271 2.594 0 1.482-.998 2.561-2.27 2.561zm2.141-5.88h-.064c-.419-.499-1.224-.95-2.239-.95-2.127 0-4.076 1.868-4.076 4.269 0 2.384 1.95 4.237 4.076 4.237 1.015 0 1.82-.451 2.24-.967h.063v.612c0 1.628-.869 2.498-2.27 2.498-1.145 0-1.854-.822-2.144-1.515l-1.627.677c.467 1.128 1.708 2.513 3.77 2.513 2.191 0 4.044-1.289 4.044-4.43v-7.637h-1.773v.693zm3.062 7.298h1.87V16.451h-1.87v12.502zm4.623-4.124c-.048-1.643 1.273-2.481 2.223-2.481.742 0 1.37.37 1.58.902l-3.803 1.579zm5.8-1.418c-.354-.95-1.434-2.706-3.64-2.706-2.192 0-4.012 1.723-4.012 4.253 0 2.384 1.804 4.253 4.22 4.253 1.95 0 3.078-1.192 3.545-1.885l-1.45-.967c-.483.709-1.144 1.176-2.095 1.176-.95 0-1.627-.435-2.062-1.288l5.687-2.352-.193-.484zM49.772 22.01v1.804h4.317c-.129 1.015-.467 1.756-.982 2.272-.629.628-1.612 1.32-3.335 1.32-2.658 0-4.737-2.142-4.737-4.8 0-2.659 2.08-4.801 4.737-4.801 1.434 0 2.481.564 3.254 1.289l1.273-1.273C53.22 16.79 51.786 16 49.772 16c-3.64 0-6.702 2.965-6.702 6.606s3.061 6.605 6.702 6.605c1.965 0 3.447-.644 4.607-1.853 1.192-1.192 1.563-2.867 1.563-4.221 0-.419-.032-.805-.097-1.127h-6.073zm11.08 5.525c-1.29 0-2.402-1.063-2.402-2.577 0-1.531 1.112-2.578 2.401-2.578 1.288 0 2.4 1.047 2.4 2.578 0 1.514-1.112 2.577-2.4 2.577zm0-6.83c-2.354 0-4.27 1.788-4.27 4.253 0 2.448 1.916 4.253 4.27 4.253 2.351 0 4.268-1.805 4.268-4.253 0-2.465-1.917-4.253-4.269-4.253zm9.312 6.83c-1.289 0-2.4-1.063-2.4-2.577 0-1.531 1.111-2.578 2.4-2.578 1.29 0 2.4 1.047 2.4 2.578 0 1.514-1.11 2.577-2.4 2.577zm0-6.83c-2.352 0-4.269 1.788-4.269 4.253 0 2.448 1.917 4.253 4.27 4.253 2.351 0 4.268-1.805 4.268-4.253 0-2.465-1.917-4.253-4.269-4.253z" fill="#000"/>
    <defs>
        <linearGradient id="gc93sm913b" x1="35.116" y1="22.001" x2="26.915" y2="22.001" gradientUnits="userSpaceOnUse">
            <stop stop-color="#FFBC00"/>
            <stop offset="1" stop-color="#FFDA03"/>
        </linearGradient>
        <linearGradient id="gzt9s3uaxd" x1="28.841" y1="25.971" x2="18.138" y2="34.793" gradientUnits="userSpaceOnUse">
            <stop stop-color="#E22652"/>
            <stop offset="1" stop-color="#FF3A44"/>
        </linearGradient>
        <linearGradient id="x8s4l7rg3f" x1="16.348" y1="11.046" x2="23.484" y2="17.321" gradientUnits="userSpaceOnUse">
            <stop stop-color="#0ED574"/>
            <stop offset="1" stop-color="#07F076"/>
        </linearGradient>
    </defs>
</svg>
