<svg width="66" height="66" viewBox="0 0 66 66" fill="none" xmlns="http://www.w3.org/2000/svg">
    <circle cx="33" cy="33" r="32" stroke="#1ECAD3" stroke-width="2"/>
    <path d="M30 28.62v-4.245c-.615 0-1.125-.51-1.125-1.125v-3.375H25.5c-6.615 0-8.625 2.01-8.625 8.625v.75c0 .615.51 1.125 1.125 1.125A2.638 2.638 0 0 1 20.625 33 2.638 2.638 0 0 1 18 35.625c-.615 0-1.125.51-1.125 1.125v.75c0 6.615 2.01 8.625 8.625 8.625h3.375V42.75c0-.615.51-1.125 1.125-1.125V37.38c-.615 0-1.125-.51-1.125-1.125v-6.51c0-.615.51-1.125 1.125-1.125z" fill="#1ECAD3"/>
    <path opacity=".4" d="M45.375 33.75A2.638 2.638 0 0 0 48 36.375c.615 0 1.125.51 1.125 1.125 0 6.615-2.01 8.625-8.625 8.625h-9.375V42.75c0-.615-.51-1.125-1.125-1.125V37.38c.615 0 1.125-.51 1.125-1.125v-6.51c0-.615-.51-1.125-1.125-1.125v-4.245c.615 0 1.125-.51 1.125-1.125v-3.375H40.5c6.615 0 8.625 2.01 8.625 8.625V30c0 .615-.51 1.125-1.125 1.125a2.638 2.638 0 0 0-2.625 2.625z" fill="#1ECAD3"/>
</svg>
