<svg width="142" height="44" viewBox="0 0 142 44" fill="none" xmlns="http://www.w3.org/2000/svg">
    <rect width="142" height="44" rx="8" fill="#fff"/>
    <path d="m42.237 25.433-1.34-2.677a1.43 1.43 0 0 0-1.277-.791H25.576a.579.579 0 0 0-.517.832l.9 1.754a2.82 2.82 0 0 0 2.517 1.524H41.83a.446.446 0 0 0 .406-.64v-.002zM34.824 27.47h-2.1a.375.375 0 0 0-.375.366v2.028a.375.375 0 0 0 .375.365h2.1a.375.375 0 0 0 .375-.365v-2.028a.375.375 0 0 0-.375-.365zM90.689 21.964H75.398a.256.256 0 0 1-.214-.107.255.255 0 0 1-.03-.238 6.247 6.247 0 0 0 .356-2.1v-2.1a.477.477 0 0 0-.477-.477h-3.246a.477.477 0 0 0-.477.477v2.13a2.434 2.434 0 0 1-2.434 2.413h-1.41a.256.256 0 0 1-.253-.215.254.254 0 0 1 .01-.12c.226-.65.342-1.334.345-2.023v-2.13a.477.477 0 0 0-.487-.477h-3.275a.487.487 0 0 0-.487.477v2.1a2.426 2.426 0 0 1-2.454 2.413h-9.41a1.43 1.43 0 0 0-1.278.791l-1.34 2.677a.446.446 0 0 0 .407.64h11.642a6.733 6.733 0 0 0 5.172-2.394l.933 1.866a.9.9 0 0 0 .81.5h1.015a6.701 6.701 0 0 0 5.374-2.663l.953 2.15a.9.9 0 0 0 .82.537H87.79a2.85 2.85 0 0 0 2.525-1.53l.872-1.765a.569.569 0 0 0-.5-.832h.003zM73.317 27.47h-5.659a.375.375 0 0 0-.375.366v2.028a.375.375 0 0 0 .375.365h5.658a.375.375 0 0 0 .375-.365v-2.028a.375.375 0 0 0-.375-.365h.001zM42.177 27.47h-5.654a.375.375 0 0 0-.375.366v2.028a.375.375 0 0 0 .375.365h5.658a.374.374 0 0 0 .375-.365v-2.028a.375.375 0 0 0-.379-.365zM59.31 27.47h-2.085a.366.366 0 0 0-.375.366v2.028a.367.367 0 0 0 .375.365h2.085a.365.365 0 0 0 .375-.365v-2.028a.365.365 0 0 0-.375-.365zM47.286 13h-3.478a.365.365 0 0 0-.365.355v12.321a.405.405 0 0 0 .406.4h3.4a.4.4 0 0 0 .4-.4V13.35a.356.356 0 0 0-.363-.35zM115.466 19.806a7.1 7.1 0 0 1 1.577 8.5c3.782-6.318 2.353-11.287 2.353-11.287-8.214-4.116-12.828-.607-12.828-.607a13.282 13.282 0 0 1 8.9 3.387l-.002.008z" fill="#000"/>
    <path d="M106.172 21.162a7 7 0 0 1 8.467-1.582c-6.287-3.8-11.226-2.373-11.226-2.373-4.056 8.265-.608 12.9-.608 12.9a13.41 13.41 0 0 1 3.367-8.944v-.001z" fill="#000"/>
    <path d="M107.628 30.37a7.098 7.098 0 0 1-1.582-8.5c-3.762 6.307-2.342 11.287-2.342 11.287 8.214 4.117 12.818.608 12.818.608a13.265 13.265 0 0 1-8.893-3.4l-.001.005z" fill="#000"/>
    <path d="M120.334 20.047a13.402 13.402 0 0 1-3.377 8.944 6.989 6.989 0 0 1-8.457 1.586c6.277 3.8 11.226 2.363 11.226 2.363 4.096-8.263.608-12.893.608-12.893zM117.414 8c-5.871.112-6.257 5.243-6.257 5.243 5.902.497 6.257-5.243 6.257-5.243z" fill="#000"/>
</svg>
