<svg width="66" height="66" viewBox="0 0 66 66" fill="none" xmlns="http://www.w3.org/2000/svg">
<circle cx="33" cy="33" r="32" stroke="#1ECAD3" stroke-width="2"/>
<path fill-rule="evenodd" clip-rule="evenodd" d="M34.2326 34.9912C34.2326 37.6678 35.241 39.8957 36.5621 40.3775L34.2326 53.0823L31.9031 40.3775C33.1992 39.9208 34.2326 37.6929 34.2326 34.9912Z" fill="#1ECAD3"/>
<path fill-rule="evenodd" clip-rule="evenodd" d="M35.3928 21.5721C35.1914 20.3049 35.3653 19.0065 35.893 17.837C37.164 15.4903 39.9502 16.8128 38.8573 18.4467C38.5179 18.8503 38.0671 19.1451 37.5613 19.2941C35.4944 20.1414 35.926 20.6746 35.5036 21.4058L35.4363 21.5154C35.4363 21.5154 35.4099 21.5629 35.3928 21.5721Z" fill="#1ECAD3"/>
<path fill-rule="evenodd" clip-rule="evenodd" d="M22.5007 32.1847C23.0762 31.8125 23.9407 31.2106 24.4805 30.8213C25.2212 30.2536 26.0686 29.841 26.9723 29.6081C27.876 29.3752 28.8173 29.3268 29.7401 29.4658C30.6457 29.5983 31.5321 29.8399 32.3798 30.1851C31.8518 29.3378 27.9081 27.0254 26.5949 26.4896C24.4515 25.6422 20.9882 24.8635 18.8698 26.219C17.9595 26.67 17.2001 27.3763 16.6842 28.2516C16.3604 28.7442 16.1802 29.3172 16.1636 29.9065C16.1471 30.4958 16.2949 31.0781 16.5905 31.5881C18.1136 34.1922 21.5861 32.8459 22.5007 32.1847Z" fill="#1ECAD3"/>
<path fill-rule="evenodd" clip-rule="evenodd" d="M44.4194 20.504C41.7097 20.2242 39.4568 22.4006 38.4906 23.8327C37.8256 24.757 37.2581 25.7478 36.7973 26.7891C36.2789 27.8758 35.8677 29.0105 35.5698 30.1771C36.1717 29.6175 37.5681 26.5515 41.583 26.7891C48.8857 27.3646 49.733 21.2827 44.4194 20.504Z" fill="#1ECAD3"/>
<path fill-rule="evenodd" clip-rule="evenodd" d="M27.6626 23.129C28.0586 24.9082 30.2033 27.144 31.6221 28.2764C32.6408 29.1221 33.7382 29.8681 34.8993 30.5043C34.704 30.1479 34.2552 29.7507 33.9503 29.2848C33.6693 28.8342 33.4201 28.3645 33.2046 27.8791C32.3573 25.939 32.8324 24.3393 33.3564 22.4757C33.8843 21.3657 33.9913 18.1559 32.2134 17.1224C31.8072 16.8919 31.354 16.7567 30.8879 16.727C30.4217 16.6972 29.955 16.7738 29.5228 16.9509C29.0906 17.1279 28.7043 17.4009 28.393 17.7491C28.0817 18.0973 27.8537 18.5117 27.726 18.961C27.1576 20.2909 27.1362 21.7913 27.6666 23.1369L27.6626 23.129Z" fill="#1ECAD3" fill-opacity="0.37"/>
<path fill-rule="evenodd" clip-rule="evenodd" d="M35.0616 28.5259C35.7129 27.6923 36.1237 26.6964 36.2494 25.646C36.6137 21.8937 31.9124 22.8928 34.1746 25.5694C35.3242 26.9275 35.282 26.8734 35.0616 28.5259Z" fill="#1ECAD3"/>
<path fill-rule="evenodd" clip-rule="evenodd" d="M25.4649 24.6794C25.6082 24.2966 25.6421 23.8815 25.5628 23.4806C25.4836 23.0797 25.2943 22.7087 25.0161 22.4093C24.6096 21.9354 23.7623 21.232 22.9743 21.909C22.3144 22.4845 22.6615 23.5272 23.2713 24.0947C23.8811 24.6622 24.5423 24.6108 25.4649 24.6794Z" fill="#1ECAD3"/>
<path fill-rule="evenodd" clip-rule="evenodd" d="M37.4349 23.0376C37.7485 23.0456 38.0589 22.9717 38.3352 22.8231C38.6116 22.6745 38.8444 22.4564 39.0107 22.1903C39.2813 21.7943 39.6377 21.0724 39.0107 20.683C38.3838 20.2937 37.7741 20.8361 37.4692 21.3773C37.1643 21.9184 37.3332 22.3935 37.4349 23.0376Z" fill="#1ECAD3"/>
<path fill-rule="evenodd" clip-rule="evenodd" d="M39.4421 30.9648C38.4053 30.9648 37.3917 31.2723 36.5296 31.8483C35.6675 32.4244 34.9955 33.2431 34.5988 34.2011C34.202 35.159 34.0982 36.2131 34.3004 37.23C34.5027 38.2469 35.002 39.181 35.7352 39.9142C36.4683 40.6474 37.4025 41.1467 38.4194 41.3489C39.4363 41.5512 40.4904 41.4474 41.4483 41.0506C42.4062 40.6538 43.225 39.9819 43.801 39.1198C44.3771 38.2577 44.6845 37.2441 44.6845 36.2073C44.6845 34.8169 44.1322 33.4835 43.1491 32.5003C42.1659 31.5172 40.8325 30.9648 39.4421 30.9648ZM38.8495 31.9811C39.6872 31.9811 40.5061 32.2295 41.2026 32.6949C41.8991 33.1603 42.4419 33.8218 42.7625 34.5957C43.083 35.3696 43.1669 36.2212 43.0035 37.0428C42.8401 37.8644 42.4367 38.619 41.8444 39.2114C41.2521 39.8037 40.4974 40.2071 39.6758 40.3705C38.8542 40.5339 38.0026 40.45 37.2287 40.1295C36.4548 39.8089 35.7933 39.266 35.3279 38.5695C34.8626 37.873 34.6141 37.0542 34.6141 36.2165C34.6141 35.0939 35.0598 34.0172 35.8533 33.223C36.6467 32.4289 37.7229 31.9822 38.8456 31.9811H38.8495Z" fill="#1ECAD3" fill-opacity="0.53"/>
<path fill-rule="evenodd" clip-rule="evenodd" d="M28.964 30.9648C30.0012 30.9633 31.0155 31.2694 31.8787 31.8445C32.7418 32.4196 33.415 33.2378 33.813 34.1956C34.211 35.1534 34.3159 36.2077 34.1145 37.2251C33.9132 38.2426 33.4145 39.1774 32.6816 39.9114C31.9488 40.6454 31.0147 41.1454 29.9976 41.3484C28.9804 41.5513 27.9259 41.4479 26.9676 41.0514C26.0092 40.6548 25.1899 39.9829 24.6135 39.1206C24.0371 38.2583 23.7295 37.2444 23.7295 36.2073C23.7295 34.8183 24.2807 33.486 25.2621 32.5031C26.2436 31.5202 27.575 30.9669 28.964 30.9648ZM29.5566 31.9811C30.682 31.9822 31.7609 32.4301 32.5561 33.2264C33.3513 34.0228 33.7978 35.1023 33.7972 36.2277C33.7967 37.3531 33.3493 38.4322 32.5533 39.2278C31.7574 40.0234 30.678 40.4703 29.5526 40.4703C28.4272 40.4703 27.3479 40.0234 26.5519 39.2278C25.756 38.4322 25.3085 37.3531 25.308 36.2277C25.3075 35.1023 25.7539 34.0228 26.5491 33.2264C27.3444 32.4301 28.4233 31.9822 29.5487 31.9811H29.5566Z" fill="#1ECAD3" fill-opacity="0.53"/>
<path fill-rule="evenodd" clip-rule="evenodd" d="M40.4085 28.0104C39.1913 28.5546 38.0924 29.3316 37.1736 30.2977C38.2664 30.01 39.3922 29.3659 41.0354 30.34C46.753 33.761 45.7116 25.545 40.4085 28.0104Z" fill="#1ECAD3"/>
<path fill-rule="evenodd" clip-rule="evenodd" d="M21.9674 40.4111L23.9921 38.8867C24.1243 39.1586 24.283 39.4167 24.4659 39.6575C24.6451 39.901 24.8524 40.1226 25.0836 40.3174L23.0339 41.859C22.8413 42.005 22.5987 42.0685 22.3594 42.0356C22.12 42.0026 21.9035 41.876 21.7576 41.6835C21.6116 41.4909 21.5481 41.2483 21.581 41.009C21.6139 40.7696 21.7406 40.5531 21.9331 40.4072L21.9674 40.4111Z" fill="#1ECAD3" fill-opacity="0.53"/>
<path fill-rule="evenodd" clip-rule="evenodd" d="M38.8496 36.2098H37.3674C37.3674 36.503 37.4544 36.7895 37.6172 37.0333C37.7801 37.277 38.0116 37.467 38.2824 37.5792C38.5532 37.6914 38.8513 37.7207 39.1388 37.6635C39.4263 37.6063 39.6904 37.4652 39.8977 37.2579C40.105 37.0506 40.2461 36.7865 40.3033 36.499C40.3605 36.2115 40.3312 35.9135 40.219 35.6426C40.1068 35.3718 39.9168 35.1403 39.6731 34.9774C39.4293 34.8146 39.1428 34.7277 38.8496 34.7277C38.6166 34.7247 38.3866 34.7801 38.1804 34.8887L38.8496 36.2098Z" fill="#1ECAD3" fill-opacity="0.53"/>
<path fill-rule="evenodd" clip-rule="evenodd" d="M29.5395 36.2098H31.0217C31.0217 36.503 30.9348 36.7895 30.7719 37.0333C30.6091 37.277 30.3776 37.467 30.1068 37.5792C29.8359 37.6914 29.5379 37.7207 29.2504 37.6635C28.9629 37.6063 28.6988 37.4652 28.4915 37.2579C28.2842 37.0506 28.143 36.7865 28.0859 36.499C28.0287 36.2115 28.058 35.9135 28.1702 35.6426C28.2824 35.3718 28.4723 35.1403 28.7161 34.9774C28.9598 34.8146 29.2464 34.7277 29.5395 34.7277C29.7725 34.7247 30.0026 34.7801 30.2087 34.8887L29.5395 36.2098Z" fill="#1ECAD3" fill-opacity="0.53"/>
</svg>
