<svg width="142" height="44" viewBox="0 0 142 44" fill="none" xmlns="http://www.w3.org/2000/svg">
    <rect width="142" height="44" rx="8" fill="#fff"/>
    <path d="M26.127 26a2.27 2.27 0 0 1-.818-.136 2 2 0 0 1-.633-.399 1.506 1.506 0 0 1-.31.3 1.79 1.79 0 0 1-.328.175c-.109.04-.214.066-.316.076a1.787 1.787 0 0 1-.257.022c-.061 0-.141-.009-.24-.027a2.914 2.914 0 0 1-.398-.115 10.144 10.144 0 0 1-.633-.25c-.254-.11-.569-.257-.943-.442-.251-.124-.487-.242-.71-.355a42.27 42.27 0 0 1-.534-.289v5.04h-1.025v-5.65l.992-.58a147.535 147.535 0 0 0 .633.35c.113.062.222.118.328.17.054-.328.116-.623.185-.884.073-.266.162-.504.267-.715.353-.71.91-1.064 1.67-1.064a1.936 1.936 0 0 1 1.55.747c.177.226.311.488.402.786a3.162 3.162 0 0 1 .131 1.107c0 .055-.002.107-.006.159 0 .2.04.361.12.485.084.123.18.22.29.289a1.14 1.14 0 0 0 .583.17h.18V26h-.18zm-4.281-1.68c.308.153.565.274.768.366l.497.207c.123.047.21.078.262.092a.78.78 0 0 0 .092.022c.04 0 .099-.007.175-.022a.44.44 0 0 0 .235-.141c.08-.084.149-.215.207-.393.058-.178.087-.433.087-.764 0-.04-.005-.103-.016-.19a1.907 1.907 0 0 0-.164-.617 1.046 1.046 0 0 0-.502-.534.93.93 0 0 0-.43-.093c-.142 0-.273.023-.393.07a.705.705 0 0 0-.322.284c-.098.146-.19.355-.273.628-.08.272-.154.634-.223 1.085zm9.844.65V26h-.954c-.331 0-.624-.047-.878-.142a1.389 1.389 0 0 1-.606-.425c-.378.378-.938.567-1.68.567h-1.854v-1.03h1.854c.262 0 .47-.026.622-.077a.92.92 0 0 0 .344-.197c.08-.08.13-.167.152-.262.026-.098.039-.19.039-.278v-1.843h1.025v1.805c0 .135.02.25.06.344a.888.888 0 0 0 .158.24c.062.062.131.11.207.147.08.037.157.064.23.082.072.018.138.029.196.033.058.003.102.005.13.005h.955zm-1.505 3.14-.884.884-.85-.883.861-.873.873.873zm-2.09.012-.883.884-.85-.884.861-.873.873.873zm6.178-3.464c.163-.058.31-.13.442-.218a1.411 1.411 0 0 0 .55-.704c.051-.149.077-.318.077-.507a.69.69 0 0 0-.087-.327.977.977 0 0 0-.23-.295 1.18 1.18 0 0 0-.327-.212.95.95 0 0 0-.387-.082c-.153 0-.3.025-.442.076a1.292 1.292 0 0 0-.37.197.908.908 0 0 0-.252.289.728.728 0 0 0-.092.354v.066c0 .156.023.305.07.447.051.138.126.265.224.382.098.116.217.22.355.31.142.088.298.162.469.224zm.038-3.376c.313 0 .593.054.84.163a1.902 1.902 0 0 1 1.02 1.059c.09.232.136.474.136.725 0 .353-.05.671-.152.955-.099.283-.25.534-.453.752.276.022.574.033.894.033h.633V26h-.633c-.93 0-1.709-.087-2.334-.262-.32.088-.687.153-1.102.197-.414.043-.887.065-1.418.065h-.65v-1.03h.65c.396 0 .75-.012 1.064-.034a2.17 2.17 0 0 1-.48-.758 2.737 2.737 0 0 1-.159-.949c0-.265.055-.516.164-.753.113-.236.265-.443.458-.621.197-.179.424-.319.682-.42.262-.102.542-.153.84-.153zm.905-1.304-.861-.873.85-.883.884.883-.873.873zm-2.089-.01-.861-.873.85-.884.884.884-.873.872zm9.48 5.001V26h-.954c-.331 0-.624-.047-.879-.142a1.39 1.39 0 0 1-.605-.425c-.378.378-.938.567-1.68.567h-1.855v-1.03h1.855c.262 0 .469-.026.622-.077a.92.92 0 0 0 .343-.197c.08-.08.131-.167.153-.262.026-.098.038-.19.038-.278v-1.843h1.026v1.805c0 .135.02.25.06.344a.885.885 0 0 0 .158.24c.062.062.13.11.207.147.08.037.157.064.23.082.072.018.138.029.196.033.058.003.102.005.13.005h.955zm-1.767-3.987-.862-.873.85-.884.885.884-.873.873zm-2.09-.011-.861-.873.85-.883.885.883-.873.873zM51.594 26c-.349 0-.658-.05-.927-.147a1.72 1.72 0 0 1-.676-.453h-.006l-.082.087c-.178.171-.38.3-.605.388a2.068 2.068 0 0 1-.726.125c-.68 0-1.207-.196-1.581-.59a1.81 1.81 0 0 1-.628.437 2.095 2.095 0 0 1-.72.153h-.07c-.644-.01-1.146-.2-1.506-.567a.381.381 0 0 1-.077.076c-.367.327-.885.491-1.554.491h-.425v-1.03h.425c.233 0 .42-.023.562-.066a.758.758 0 0 0 .338-.191.65.65 0 0 0 .158-.311c.03-.124.044-.264.044-.42v-1.664h1.03v1.636c0 .353.086.61.257.77.171.16.438.241.802.245a1.46 1.46 0 0 0 .24-.038.685.685 0 0 0 .278-.137.847.847 0 0 0 .235-.294c.065-.13.098-.304.098-.518v-1.664h1.025v1.636c0 .353.084.611.251.775.171.16.444.24.818.24.106 0 .211-.016.317-.049a.743.743 0 0 0 .283-.164.893.893 0 0 0 .208-.294c.054-.124.085-.275.092-.453v-1.69h1.031v1.69c.008.335.1.578.278.731.179.153.45.23.813.23h.333V26h-.333zm3.714-.77c.026 0 .06 0 .104-.005a.399.399 0 0 0 .147-.043.561.561 0 0 0 .158-.115.697.697 0 0 0 .142-.223c.044-.099.078-.222.104-.371a3.026 3.026 0 0 0 .032-.747 1.918 1.918 0 0 0-.163-.622 1.122 1.122 0 0 0-.197-.311.964.964 0 0 0-.741-.322c-.16 0-.297.029-.41.087a.803.803 0 0 0-.278.23c-.076.098-.14.214-.19.348-.051.131-.099.275-.142.431-.044.153-.088.315-.131.486a6.554 6.554 0 0 1-.153.502c.19.094.364.183.524.267.16.084.309.156.447.218.138.058.267.105.387.142.124.033.244.049.36.049zm-.414-3.785c.356 0 .665.07.927.208.265.134.485.316.66.545.174.23.303.493.387.791.087.298.131.607.131.927 0 .353-.03.657-.093.911-.058.255-.136.47-.234.644-.098.17-.21.309-.333.415a1.447 1.447 0 0 1-.73.349 1.985 1.985 0 0 1-.3.027c-.179 0-.35-.018-.514-.055a3.186 3.186 0 0 1-.501-.158 5.271 5.271 0 0 1-.54-.245c-.186-.098-.391-.21-.617-.333-.298.353-.682.529-1.15.529h-.628v-1.03h.627c.139 0 .251-.052.339-.154.09-.101.169-.234.234-.398a4.69 4.69 0 0 0 .18-.562c.055-.21.116-.427.185-.649.073-.222.159-.438.257-.649.098-.21.222-.398.37-.562.154-.163.337-.296.552-.398a1.86 1.86 0 0 1 .79-.152zm18.17 3.524v1.025H72.9c-.265 0-.516-.038-.753-.114a2.048 2.048 0 0 1-.698-.398l-.065-.066c-.386.382-.944.575-1.675.578h-6.19c-.259 0-.503-.043-.732-.13a1.84 1.84 0 0 1-.6-.377 1.804 1.804 0 0 1-.42-.572 2.485 2.485 0 0 1-.147-.431 2.55 2.55 0 0 1-.054-.551c0-.182.018-.382.054-.6.04-.218.082-.426.126-.622.047-.196.09-.365.13-.507l.082-.262.982.31a7.948 7.948 0 0 0-.098.328c-.036.138-.075.287-.115.447-.036.16-.069.322-.098.486-.025.16-.038.3-.038.42 0 .24.038.429.114.567a.88.88 0 0 0 .268.31c.105.07.21.114.316.132.106.018.186.027.24.027h6.142c.265 0 .476-.027.633-.082a.888.888 0 0 0 .36-.207.556.556 0 0 0 .158-.273c.025-.102.038-.198.038-.289v-1.892h1.031v1.865c0 .207.044.37.13.49.092.117.195.204.312.263.116.058.229.094.338.109.109.01.185.016.229.016h.164zm-5.356-3.147-.861-.873.85-.884.884.884-.873.873zm-2.089-.011-.862-.873.851-.883.884.883-.873.873zM72.422 26v-1.03h2.422c.407 0 .734-.03.982-.088.25-.058.445-.131.583-.218a.707.707 0 0 0 .278-.284.947.947 0 0 0 .093-.3h-.829a5.092 5.092 0 0 1-.682-.05 2.985 2.985 0 0 1-.376-.092 2.064 2.064 0 0 1-.371-.158 2.142 2.142 0 0 1-.3-.218 1.517 1.517 0 0 1-.278-.322 2.044 2.044 0 0 1-.202-.458 2.273 2.273 0 0 1-.077-.622c0-.294.051-.573.153-.834a1.927 1.927 0 0 1 1.086-1.113c.243-.099.503-.148.78-.148a1.856 1.856 0 0 1 1.544.78c.196.262.341.586.436.971.094.386.141.828.141 1.326v.753c0 .36-.072.68-.218.96-.142.28-.358.507-.649.681-.483.31-1.182.464-2.094.464h-2.422zm3.262-4.904a1.142 1.142 0 0 0-.71.257.994.994 0 0 0-.245.327 1.142 1.142 0 0 0-.093.48c0 .12.013.222.039.305.025.08.058.148.098.202.04.051.082.093.125.126a1.208 1.208 0 0 0 .513.218c.153.025.333.038.54.038h.84a4.16 4.16 0 0 0-.115-.944 2.013 2.013 0 0 0-.272-.66.85.85 0 0 0-.72-.349zm-.835-3.212.927-.939.95.95-.939.938-.938-.95zM81.3 26a5.544 5.544 0 0 1-.949-.076 2.432 2.432 0 0 1-.632-.213 1.31 1.31 0 0 1-.415-.35 1.715 1.715 0 0 1-.24-.49c-.058-.19-.096-.4-.115-.633a10 10 0 0 1-.027-.774v-5.248h1.031v5.248c0 .316.01.572.027.769.022.196.075.349.159.458a.687.687 0 0 0 .387.218c.174.037.433.056.774.06V26zm3.216-4.44a7.528 7.528 0 0 1 .115.53c.029.137.06.292.093.463a14.614 14.614 0 0 1 .153 1.01c.018.159.027.299.027.419 0 .349-.059.65-.175.905-.113.251-.262.46-.447.628a1.8 1.8 0 0 1-.617.365c-.229.08-.46.12-.692.12h-2.258v-1.03h2.258c.054 0 .13-.008.229-.023a.803.803 0 0 0 .562-.42c.076-.13.114-.312.114-.545 0-.08-.007-.18-.022-.3a5.795 5.795 0 0 0-.049-.393 9.626 9.626 0 0 0-.065-.43 18.632 18.632 0 0 0-.147-.77 3.753 3.753 0 0 0-.055-.229l.976-.3zm.459 6.518-.884.884-.851-.884.862-.872.873.872zm-2.09.011-.883.884-.851-.884.862-.873.873.873zm2.488.938v-1.03h.753c.374 0 .698-.046.97-.137.277-.087.504-.224.683-.41.181-.184.314-.42.398-.708.087-.288.13-.63.13-1.026v-3.403h1.032v3.403c0 .52-.07.984-.208 1.391-.134.411-.336.759-.605 1.042-.27.284-.606.5-1.01.65-.4.152-.863.228-1.39.228h-.753zm7.102-2.945c-.186 0-.373-.01-.562-.027a5.499 5.499 0 0 1-.556-.071 4.7 4.7 0 0 1-.518-.137 2.535 2.535 0 0 1-.448-.207l-.453-.256.513-.9.453.256c.127.073.284.133.469.18.186.044.382.074.59.093.177.018.355.027.534.027h.229c.12-.004.269-.018.447-.044.21-.032.384-.078.518-.136.138-.062.226-.13.262-.207a.319.319 0 0 0 .022-.12.872.872 0 0 0-.055-.257 1.875 1.875 0 0 0-.229-.43l-1.974-2.984.872-.567c.048.072.097.149.148.229l.18.272a97.271 97.271 0 0 0 .573.867l.458.688.61.916c.091.139.173.284.246.437.073.149.127.3.164.452a1.794 1.794 0 0 1 .043.568c-.003.083-.04.2-.109.349-.229.512-.756.829-1.582.949a6.298 6.298 0 0 1-.845.06zM105.485 17.774c-.413 0-.764.145-1.052.433a1.414 1.414 0 0 0-.433 1.038v6.202c0 .414.144.765.433 1.053.288.289.639.433 1.052.433a1.41 1.41 0 0 0 1.046-.433c.284-.288.426-.639.426-1.053v-6.202c0-.404-.144-.75-.433-1.038a1.417 1.417 0 0 0-1.039-.433zM117.428 12.207l1.024-1.89c.067-.125.043-.22-.072-.288-.125-.058-.221-.029-.288.086l-1.039 1.905a7.09 7.09 0 0 0-2.899-.607 7.092 7.092 0 0 0-2.899.607l-1.038-1.905c-.068-.115-.164-.144-.289-.086-.115.068-.139.163-.072.288l1.025 1.89a6.318 6.318 0 0 0-2.481 2.214 5.587 5.587 0 0 0-.923 3.108h13.341c0-1.125-.308-2.16-.924-3.108a6.345 6.345 0 0 0-2.466-2.214zm-5.92 2.747a.543.543 0 0 1-.397.166.518.518 0 0 1-.39-.166.555.555 0 0 1-.158-.396.556.556 0 0 1 .548-.563c.153 0 .286.056.397.166.11.111.166.243.166.397a.547.547 0 0 1-.166.396zm6.079 0a.518.518 0 0 1-.39.166.541.541 0 0 1-.397-.166.542.542 0 0 1-.165-.396c0-.154.055-.286.165-.397a.543.543 0 0 1 .397-.165.557.557 0 0 1 .548.562.556.556 0 0 1-.158.396zM107.534 27.654c0 .442.154.817.461 1.125.308.307.683.461 1.125.461h1.068l.014 3.274c0 .414.145.765.433 1.053.288.289.635.433 1.038.433.414 0 .765-.144 1.053-.432.289-.289.433-.64.433-1.054V29.24h1.99v3.274c0 .414.144.765.433 1.053.288.289.639.433 1.053.433.413 0 .764-.144 1.052-.432.289-.289.433-.64.433-1.054V29.24h1.082c.432 0 .802-.153 1.11-.461a1.53 1.53 0 0 0 .462-1.125v-9.606h-13.24v9.606zM122.823 17.773c-.404 0-.75.143-1.039.426a1.411 1.411 0 0 0-.432 1.045v6.202c0 .414.144.765.432 1.053.289.289.635.433 1.039.433.413 0 .764-.144 1.052-.433a1.43 1.43 0 0 0 .433-1.053v-6.202c0-.413-.144-.761-.433-1.045a1.444 1.444 0 0 0-1.052-.426z" fill="#000"/>
</svg>
