<svg width="66" height="66" viewBox="0 0 66 66" fill="none" xmlns="http://www.w3.org/2000/svg">
    <circle cx="33" cy="33" r="32" stroke="#1ECAD3" stroke-width="2"/>
    <path opacity=".4" d="M33 48c8.284 0 15-6.716 15-15 0-8.284-6.716-15-15-15-8.284 0-15 6.716-15 15 0 8.284 6.716 15 15 15z" fill="#1ECAD3"/>
    <path d="M33.495 40.5c-.27.09-.735.09-1.005 0-2.34-.795-7.59-4.14-7.59-9.81 0-2.505 2.01-4.53 4.5-4.53 1.47 0 2.775.705 3.6 1.815a4.488 4.488 0 0 1 3.6-1.815c2.49 0 4.5 2.025 4.5 4.53 0 5.67-5.25 9.015-7.605 9.81z" fill="#1ECAD3"/>
</svg>
