<svg width="66" height="66" viewBox="0 0 66 66" fill="none" xmlns="http://www.w3.org/2000/svg">
    <circle cx="33" cy="33" r="32" stroke="#1ECAD3" stroke-width="2"/>
    <path opacity=".4" d="M30.735 18.345 23.25 21.15c-1.725.645-3.135 2.685-3.135 4.53v11.145c0 1.77 1.17 4.095 2.595 5.16l6.45 4.815c2.115 1.59 5.595 1.59 7.71 0l6.45-4.815c1.425-1.065 2.595-3.39 2.595-5.16V25.68c0-1.845-1.41-3.885-3.135-4.53l-7.485-2.805c-1.275-.465-3.315-.465-4.56 0z" fill="#1ECAD3"/>
    <path d="M32.85 31.95H33a3.197 3.197 0 0 0 3.09-3.195c0-1.77-1.44-3.21-3.21-3.21s-3.21 1.44-3.21 3.21c.03 1.725 1.38 3.135 3.18 3.195zM36.285 35.115c-1.815-1.2-4.755-1.2-6.585 0-.84.57-1.335 1.38-1.335 2.22 0 .855.48 1.635 1.335 2.205.915.6 2.1.915 3.285.915s2.385-.3 3.285-.915c.84-.57 1.335-1.38 1.335-2.22.015-.855-.465-1.635-1.32-2.205z" fill="#1ECAD3"/>
</svg>
