<svg width="142" height="44" viewBox="0 0 142 44" fill="none" xmlns="http://www.w3.org/2000/svg">
    <rect width="142" height="44" rx="8" fill="#fff"/>
    <path d="M56.207 28.736a1.932 1.932 0 1 1 0 3.864 1.932 1.932 0 0 1 0-3.864zm5.043 0a1.932 1.932 0 1 1 0 3.865 1.932 1.932 0 0 1 0-3.865zm3.864 0a1.932 1.932 0 1 1 0 3.864 1.932 1.932 0 0 1 0-3.864zm-21.668 0a1.932 1.932 0 1 1 0 3.865 1.932 1.932 0 0 1 0-3.865zm-3.864 0a1.932 1.932 0 1 1 0 3.865 1.932 1.932 0 0 1 0-3.865zm7.728 0a1.926 1.926 0 1 1-.01 0h.01zm10.375-11.727a.454.454 0 0 1 .454.444v8.211a1.932 1.932 0 0 1-1.845 1.884H54.72a.453.453 0 0 1-.444-.444v-9.66A.454.454 0 0 1 54.72 17l2.965.009zm5.052 0a.454.454 0 0 1 .444.444v5.8a.454.454 0 0 0 .454.444H87.97a.445.445 0 0 1 .454.444v1.526a1.932 1.932 0 0 1-1.835 1.884H59.617a.29.29 0 0 1-.29-.3v-9.779a.444.444 0 0 1 .443-.443l2.967-.02zm-32.487 0a6.26 6.26 0 0 1 6.038 4.753c.309 1.227.29 1.932 1.333 1.932h11.273a.3.3 0 0 0 .29-.29V22.795a1.932 1.932 0 0 0-1.932-1.932h-5.013a3.864 3.864 0 0 1-2.975-1.256 4.656 4.656 0 0 1-.551-2.019v-.077a.444.444 0 0 1 .406-.473h8.028a6.357 6.357 0 0 1 4.048 1.053 5.504 5.504 0 0 1 1.932 4.289v4.734a.454.454 0 0 1-.444.444H36.47a3.96 3.96 0 0 1-3.864-4.009v-.59a2.192 2.192 0 0 0-2.376-2.077 2.221 2.221 0 0 0-2.367 2.106v.56c0 3.41-1.787 4.009-3.42 4.009-.425 0-.444-.135-.444-.531v-3.864a6.26 6.26 0 0 1 6.25-6.154l.001.001zM113.551 16.798a10.357 10.357 0 0 1 4.115 6.637 10.129 10.129 0 0 1-2.135 8.317l-.068.087a.54.54 0 0 1-.753.087.644.644 0 0 1-.106-.126 15.959 15.959 0 0 1-2.193-4.144c-.2-.927-.303-1.872-.309-2.82a4.655 4.655 0 0 0-2.463-3.807 4.767 4.767 0 0 0-5.546.733 4.75 4.75 0 0 0-1.483 3.575 4.752 4.752 0 0 0 1.66 3.496 4.764 4.764 0 0 0 1.737.948 4.976 4.976 0 0 0 3.574-.357.54.54 0 0 1 .686.213l2.328 4.02a.534.534 0 0 1-.193.724 10.83 10.83 0 0 1-7.728.966 10.7 10.7 0 0 1-6.221-4.656 10.482 10.482 0 0 1-1.381-7.1c1.09-7.527 10.296-11.469 16.479-6.793zm1.517-8.694h.116a.522.522 0 0 1 .483.57c.01.055.01.11 0 .164a7.366 7.366 0 0 1-2.9 3.536 7.9 7.9 0 0 1-4.956.966h-.116a.52.52 0 0 1-.483-.58.703.703 0 0 1 0-.145 7.282 7.282 0 0 1 2.83-3.545 7.9 7.9 0 0 1 5.023-1l.003.034z" fill="#000"/>
</svg>
