<svg width="66" height="66" viewBox="0 0 66 66" fill="none" xmlns="http://www.w3.org/2000/svg">
    <circle cx="33" cy="33" r="32" stroke="#1ECAD3" stroke-width="2"/>
    <path opacity=".4" d="M48.27 35.49c-.225-2.475-.885-5.115-5.7-5.115H23.43c-4.815 0-5.46 2.64-5.7 5.115l-.84 9.135a4.093 4.093 0 0 0 1.05 3.135 4.21 4.21 0 0 0 3.12 1.365h2.82c2.43 0 2.895-1.395 3.195-2.31l.3-.9c.345-1.035.435-1.29 1.785-1.29h7.68c1.35 0 1.395.15 1.785 1.29l.3.9c.3.915.765 2.31 3.195 2.31h2.82a4.234 4.234 0 0 0 3.12-1.365 4.093 4.093 0 0 0 1.05-3.135l-.84-9.135z" fill="#1ECAD3"/>
    <path d="M46.5 25.875h-1.53l-.57-2.715c-.54-2.625-1.665-5.04-6.135-5.04h-10.53c-4.47 0-5.595 2.415-6.135 5.04l-.57 2.715H19.5c-.615 0-1.125.51-1.125 1.125s.51 1.125 1.125 1.125h1.065l-.63 3c.81-.465 1.935-.75 3.495-.75h19.14c1.56 0 2.685.285 3.495.75l-.63-3H46.5c.615 0 1.125-.51 1.125-1.125s-.51-1.125-1.125-1.125zM28.5 38.625H24c-.615 0-1.125-.51-1.125-1.125s.51-1.125 1.125-1.125h4.5c.615 0 1.125.51 1.125 1.125s-.51 1.125-1.125 1.125zM42 38.625h-4.5c-.615 0-1.125-.51-1.125-1.125s.51-1.125 1.125-1.125H42c.615 0 1.125.51 1.125 1.125s-.51 1.125-1.125 1.125z" fill="#1ECAD3"/>
</svg>
