<svg width="66" height="66" viewBox="0 0 66 66" fill="none" xmlns="http://www.w3.org/2000/svg">
    <circle cx="33" cy="33" r="32" stroke="#1ECAD3" stroke-width="2"/>
    <path opacity=".4" d="M25.095 44.55c1.23-1.32 3.105-1.215 4.185.225l1.515 2.025c1.215 1.605 3.18 1.605 4.395 0l1.515-2.025c1.08-1.44 2.955-1.545 4.185-.225 2.67 2.85 4.845 1.905 4.845-2.085V25.56C45.75 19.515 44.34 18 38.67 18H27.33c-5.67 0-7.08 1.515-7.08 7.56v16.89c0 4.005 2.19 4.935 4.845 2.1z" fill="#1ECAD3"/>
    <path d="M39 26.625H27c-.615 0-1.125-.51-1.125-1.125s.51-1.125 1.125-1.125h12c.615 0 1.125.51 1.125 1.125s-.51 1.125-1.125 1.125zM37.5 32.625h-9c-.615 0-1.125-.51-1.125-1.125s.51-1.125 1.125-1.125h9c.615 0 1.125.51 1.125 1.125s-.51 1.125-1.125 1.125z" fill="#1ECAD3"/>
</svg>
