<svg xmlns="http://www.w3.org/2000/svg" width="109.969" height="17.459" viewBox="0 0 109.969 17.459">
  <g id="Layer_2" data-name="Layer 2" transform="translate(0 0.002)">
    <g id="Layer_1" data-name="Layer 1" transform="translate(0 -0.002)">
      <g id="Group_10192" data-name="Group 10192">
        <circle id="Ellipse_124" data-name="Ellipse 124" cx="5.563" cy="5.563" r="5.563" transform="translate(3.167 3.166)" fill="#fff"/>
        <path id="Path_933" data-name="Path 933" d="M17.458,8.729A8.729,8.729,0,1,0,0,8.729,8.609,8.609,0,0,0,.093,10,8.729,8.729,0,0,0,17.458,8.729ZM2.87,10a6.043,6.043,0,0,1-.134-1.272,6.132,6.132,0,0,1,.122-1.213,6,6,0,1,1,0,2.485Z" fill="#ed2027"/>
        <path id="Path_934" data-name="Path 934" d="M23.286,17.233a6.053,6.053,0,1,0-6.051,6.053,6.053,6.053,0,0,0,6.051-6.053Zm-10.217,0a4.166,4.166,0,0,1,8.33,0" transform="translate(-8.506 -8.506)" fill="#1ecad3"/>
        <circle id="Ellipse_125" data-name="Ellipse 125" cx="2.772" cy="2.772" r="2.772" transform="translate(5.924 5.988)" fill="#ed2027"/>
      </g>
      <path id="Path_935" data-name="Path 935" d="M223,0h6.07a5.12,5.12,0,0,1,2.04.409,6.079,6.079,0,0,1,1.66,1.036,4.41,4.41,0,0,1,1.117,1.564,5.061,5.061,0,0,1,.407,2.028,5.221,5.221,0,0,1-.34,1.913,5.546,5.546,0,0,1-.94,1.578,5.2,5.2,0,0,1,1.277,3.429,6,6,0,0,1-.407,2.152,5.022,5.022,0,0,1-1.117,1.767,5.467,5.467,0,0,1-1.66,1.129,4.97,4.97,0,0,1-2.04.421h-6.206a2.059,2.059,0,0,1-1.332-.517A1.834,1.834,0,0,1,221,15.595V1.8a1.435,1.435,0,0,1,.239-.763,1.858,1.858,0,0,1,.354-.478A1.674,1.674,0,0,1,222.7,0Zm6.067,6.8a1.588,1.588,0,0,0,1.169-.478,1.619,1.619,0,0,0,.49-1.2,1.55,1.55,0,0,0-.478-1.158,1.629,1.629,0,0,0-1.169-.478H224.6V6.808Zm0,6.993a1.619,1.619,0,0,0,1.169-.478,1.942,1.942,0,0,0,.49-1.456,1.942,1.942,0,0,0-.49-1.456,1.626,1.626,0,0,0-1.169-.478H224.6V13.8Z" transform="translate(-168.146 0.001)" fill="#ed2027"/>
      <path id="Path_936" data-name="Path 936" d="M289.235.149a6.7,6.7,0,0,1,2.5.478,6.457,6.457,0,0,1,2.095,1.334,6.66,6.66,0,0,1,1.435,2.026,5.959,5.959,0,0,1,.543,2.533v9.167a1.7,1.7,0,0,1-.5,1.224,1.767,1.767,0,0,1-1.239.545,1.83,1.83,0,0,1-1.265-.478,1.547,1.547,0,0,1-.526-1.21V12.585h-6.065v3.109a1.674,1.674,0,0,1-.545,1.239,1.734,1.734,0,0,1-1.251.531,1.818,1.818,0,0,1-1.251-.49,1.552,1.552,0,0,1-.545-1.2V6.733a6.892,6.892,0,0,1,.531-2.554,6.651,6.651,0,0,1,1.389-2.095A6.493,6.493,0,0,1,289.235.149Zm3.042,6.586a3.071,3.071,0,0,0-.239-1.2,2.851,2.851,0,0,0-.653-.957,3.369,3.369,0,0,0-.981-.655,2.982,2.982,0,0,0-1.21-.239,2.908,2.908,0,0,0-1.143.239,3.143,3.143,0,0,0-.957.612,2.832,2.832,0,0,0-.653.923,2.732,2.732,0,0,0-.239,1.143V9.045h6.075Z" transform="translate(-215.03 -0.112)" fill="#ed2027"/>
      <path id="Path_937" data-name="Path 937" d="M350.259.5a6.7,6.7,0,0,1,2.5.478,6.407,6.407,0,0,1,2.095,1.332,6.641,6.641,0,0,1,1.435,2.028,5.878,5.878,0,0,1,.543,2.53v9.169a1.688,1.688,0,0,1-.5,1.224,1.748,1.748,0,0,1-1.236.545,1.83,1.83,0,0,1-1.265-.478,1.55,1.55,0,0,1-.531-1.21V7.075a3.047,3.047,0,0,0-.239-1.184,2.841,2.841,0,0,0-.653-.956,3.286,3.286,0,0,0-.981-.653,3.013,3.013,0,0,0-2.353-.014,3.25,3.25,0,0,0-.957.612,2.817,2.817,0,0,0-.653.926,2.724,2.724,0,0,0-.239,1.143v9.088a1.674,1.674,0,0,1-.545,1.239,1.748,1.748,0,0,1-1.251.529,1.813,1.813,0,0,1-1.253-.478,1.543,1.543,0,0,1-.543-1.2V7.075a6.871,6.871,0,0,1,.533-2.557,6.493,6.493,0,0,1,6.1-4.02Z" transform="translate(-261.449 -0.378)" fill="#ed2027"/>
      <path id="Path_938" data-name="Path 938" d="M417.268,14.533a1.763,1.763,0,0,1,.543,1.291,1.861,1.861,0,0,1-.543,1.32,1.815,1.815,0,0,1-1.294.519,1.913,1.913,0,0,1-1.32-.517l-6.338-5.606V15.81a1.751,1.751,0,0,1-.531,1.294,1.889,1.889,0,0,1-2.631,0,1.734,1.734,0,0,1-.545-1.291V2.095a1.741,1.741,0,0,1,.545-1.277,1.853,1.853,0,0,1,2.631,0,1.772,1.772,0,0,1,.529,1.279V6.368L414.654.82a1.861,1.861,0,0,1,1.323-.545A1.767,1.767,0,0,1,417.27.82a1.758,1.758,0,0,1,.543,1.3,1.775,1.775,0,0,1-.543,1.294L410.9,8.961Z" transform="translate(-307.845 -0.205)" fill="#ed2027"/>
      <path id="Path_939" data-name="Path 939" d="M99.829,0a1.779,1.779,0,0,1,1.32.543,1.815,1.815,0,0,1,.529,1.308,1.753,1.753,0,0,1-.529,1.306,1.822,1.822,0,0,1-1.32.517H96.79V15.544a1.818,1.818,0,0,1-.517,1.32,1.877,1.877,0,0,1-2.612,0,1.818,1.818,0,0,1-.526-1.32V3.672H90.06a1.779,1.779,0,0,1-1.291-.517,1.746,1.746,0,0,1-.531-1.306A1.808,1.808,0,0,1,88.769.541,1.739,1.739,0,0,1,90.06,0Z" transform="translate(-67.135 0.002)" fill="#ed2027"/>
      <path id="Path_940" data-name="Path 940" d="M142.39,8.941A8.684,8.684,0,1,0,151.073.26a8.684,8.684,0,0,0-8.683,8.681Zm8.684-4.353a4.353,4.353,0,0,1,0,8.7Z" transform="translate(-108.337 -0.197)" fill="#ed2027"/>
      <path id="Path_941" data-name="Path 941" d="M178.7,25.505a5.068,5.068,0,0,0,0-10.135" transform="translate(-135.963 -11.694)" fill="#1ecad3"/>
    </g>
  </g>
</svg>
