<svg width="107" height="28" viewBox="0 0 107 28" fill="none" xmlns="http://www.w3.org/2000/svg">
<path d="M106.138 14.4692C105.955 14.7037 105.825 14.9715 105.663 15.2205C105.474 15.5111 105.287 15.8058 105.107 16.1047C105.079 16.1591 105.035 16.204 104.982 16.2339C104.928 16.2637 104.867 16.2773 104.806 16.2728C103.561 16.2562 102.317 16.2479 101.072 16.2396H101.022C98.9245 16.2396 96.8271 16.1877 94.7276 16.2043C94.6384 16.2043 94.5471 16.2043 94.4703 16.2043C94.4123 16.2853 94.4558 16.333 94.4828 16.3808C94.628 16.6402 94.7815 16.8976 94.9185 17.1632C94.9409 17.2108 94.978 17.25 95.0243 17.275C95.0706 17.3 95.1236 17.3096 95.1757 17.3023C95.6985 17.3023 96.213 17.3023 96.742 17.3168C97.9951 17.3321 99.2468 17.3487 100.497 17.3666C101.568 17.3805 102.637 17.3971 103.707 17.4165C103.915 17.4096 104.124 17.4263 104.329 17.4663L98.603 27.2795C98.4391 27.1155 94.7442 20.6834 94.6073 20.3264C94.6674 20.287 94.7338 20.3264 94.794 20.3264C95.3583 20.3264 95.9205 20.3554 96.4848 20.3554C96.5536 20.3505 96.6223 20.3667 96.6817 20.402C96.741 20.4372 96.7881 20.4898 96.8167 20.5526C97.334 21.47 97.8547 22.3846 98.3789 23.2965C98.4153 23.3888 98.4737 23.4707 98.549 23.5352C99.3789 22.101 100.209 20.673 101.053 19.2077H100.744C98.5615 19.2077 96.3873 19.2077 94.1986 19.2077C94.1115 19.2166 94.0239 19.197 93.949 19.1516C93.8742 19.1063 93.8161 19.0378 93.7836 18.9565C93.637 18.6473 93.4671 18.3496 93.2754 18.0661C93.016 17.6987 92.8335 17.2919 92.597 16.9142C92.5806 16.8958 92.5686 16.874 92.562 16.8503C92.5553 16.8266 92.5541 16.8017 92.5585 16.7775C92.5629 16.7532 92.5728 16.7304 92.5874 16.7105C92.6019 16.6907 92.6208 16.6745 92.6426 16.663C93.3344 16.1051 93.7925 15.3085 93.9268 14.4297C93.9641 14.2222 93.9662 14.2367 94.1757 14.2388C94.8541 14.2533 95.5346 14.2616 96.2151 14.2699C97.1259 14.2699 98.0387 14.2699 98.9515 14.2948C100.07 14.3197 101.19 14.3177 102.308 14.328C103.495 14.3405 104.68 14.3612 105.864 14.3778C105.955 14.3778 106.047 14.3778 106.138 14.3778V14.4692Z" fill="#0072BC"/>
<path d="M106.138 13.4731C105.972 13.4731 105.806 13.4731 105.64 13.4731H98.1882C98.1363 13.4046 98.1882 13.3693 98.2089 13.3299C98.5056 12.8317 98.8064 12.3357 99.099 11.8355C99.1674 11.7151 99.2421 11.6424 99.3894 11.6632C99.464 11.6694 99.5389 11.6694 99.6135 11.6632L102.671 11.6445C102.743 11.6552 102.817 11.6405 102.879 11.603C102.049 10.1812 101.236 8.75742 100.389 7.32943C100.314 7.38947 100.256 7.46821 100.221 7.55775C99.1259 9.46034 98.0326 11.3643 96.9414 13.2697C96.9119 13.3352 96.8632 13.3903 96.8016 13.4274C96.7401 13.4644 96.6687 13.4818 96.597 13.4772C95.8003 13.5042 95.0037 13.4772 94.2091 13.4897C93.9497 13.4897 93.9518 13.4897 93.9083 13.251C93.7663 12.4167 93.3234 11.6634 92.6635 11.1339C92.5556 11.0447 92.5411 10.9824 92.6178 10.8703C92.9643 10.3743 93.2402 9.83255 93.5473 9.31367C94.2734 8.04965 95.0223 6.79809 95.7547 5.53823C96.7297 3.87087 97.709 2.20143 98.6923 0.529914C98.7067 0.515033 98.7227 0.501806 98.74 0.490479C98.794 0.527839 98.8064 0.594256 98.8355 0.648221C99.1259 1.18787 99.4143 1.72959 99.7089 2.26715C99.7407 2.31398 99.7578 2.3693 99.7578 2.42593C99.7578 2.48257 99.7407 2.53789 99.7089 2.58471C98.1529 5.24558 96.5997 7.90782 95.0493 10.5715C94.8999 10.8288 94.7505 11.0883 94.6033 11.3477C94.5434 11.4275 94.51 11.524 94.5078 11.6238C94.8813 11.6238 95.2505 11.6238 95.6198 11.6238C95.7381 11.6238 95.763 11.5283 95.8086 11.4536C96.153 10.8766 96.4988 10.2996 96.8459 9.72255C97.9759 7.81166 99.1079 5.90076 100.242 3.98987C100.309 3.85363 100.391 3.72492 100.485 3.60589C100.58 3.76571 100.667 3.90477 100.748 4.04798C102.469 7.0271 104.188 10.0021 105.906 12.9729C105.965 13.1162 106.043 13.251 106.138 13.3735V13.4731Z" fill="#0072BC"/>
<path d="M74.6309 13.2903L74.7948 13.0309C75.0811 12.5743 75.3736 12.1218 75.6495 11.6589C75.6862 11.5847 75.745 11.5237 75.8179 11.4843C75.8907 11.4449 75.9739 11.429 76.0561 11.4389C76.9752 11.4389 77.8963 11.4389 78.8174 11.4597C79.6701 11.4825 80.5249 11.4804 81.3775 11.4887C82.9853 11.5033 84.5953 11.5012 86.2031 11.5053C86.2529 11.5053 86.3027 11.5053 86.3462 11.5053C86.396 11.4327 86.3462 11.387 86.3172 11.3414C86.174 11.0819 86.0226 10.8246 85.8794 10.561C85.8626 10.5207 85.8334 10.4868 85.7962 10.4641C85.7589 10.4414 85.7155 10.431 85.672 10.4344C84.9189 10.4344 84.1637 10.4053 83.4106 10.3949C81.8858 10.3742 80.361 10.3576 78.8361 10.3347C78.0975 10.3347 77.3611 10.3036 76.6225 10.287C76.5959 10.2929 76.5684 10.2923 76.542 10.2855C76.5157 10.2786 76.4914 10.2656 76.471 10.2476L82.2094 0.392822C83.5621 2.7382 84.8836 5.04414 86.1844 7.35216C86.1284 7.43103 86.0662 7.40197 86.0143 7.40197C85.4189 7.38952 84.8214 7.36876 84.226 7.36461C84.0911 7.36461 84.0413 7.29404 83.9853 7.19442C83.4584 6.26664 82.9252 5.33887 82.3962 4.4111C82.3588 4.34676 82.3215 4.28241 82.2613 4.18279C82.0538 4.46921 81.9148 4.76187 81.7489 5.03999C81.5829 5.31812 81.4149 5.61284 81.2489 5.89927L80.7614 6.72949L80.2634 7.59085L79.7738 8.44805C79.8195 8.5207 79.8838 8.49579 79.9357 8.49579L82.7696 8.51032C84.0724 8.51032 85.3732 8.53108 86.6761 8.53523C86.7371 8.52919 86.7985 8.54208 86.852 8.57216C86.9054 8.60224 86.9483 8.64804 86.9748 8.70335C87.369 9.41941 87.8275 10.1002 88.2196 10.8246C88.313 10.9968 88.315 10.9968 88.1698 11.1214C87.5008 11.6663 87.0519 12.4354 86.9064 13.2862C86.8732 13.475 86.869 13.4709 86.672 13.4688C86.0191 13.4591 85.3642 13.4508 84.7073 13.4439C83.4978 13.4315 82.2862 13.4294 81.0767 13.4045C79.6514 13.3754 78.2262 13.3713 76.8009 13.3567C76.1204 13.3567 75.442 13.336 74.7616 13.3235C74.7388 13.3304 74.7146 13.3309 74.6916 13.3251C74.6686 13.3192 74.6476 13.3072 74.6309 13.2903V13.2903Z" fill="#0072BC"/>
<path d="M74.6226 14.2411C75.162 14.212 82.4107 14.2224 82.614 14.2411C82.6596 14.3054 82.614 14.3511 82.5787 14.3967C82.2821 14.9032 81.9771 15.4075 81.6846 15.9181C81.6099 16.0468 81.5124 16.0468 81.3941 16.0468C80.3568 16.0468 79.3195 16.0468 78.2822 16.0468H77.9088C78.7656 17.5204 79.5913 18.9381 80.417 20.3619C80.4963 20.3003 80.5567 20.2175 80.5912 20.1232C81.6839 18.2275 82.7737 16.3305 83.8608 14.432C83.8924 14.3573 83.9478 14.295 84.0183 14.2549C84.0888 14.2148 84.1705 14.199 84.2509 14.2099C84.9127 14.2431 85.5745 14.1664 86.2383 14.1788C86.2715 14.1788 86.3047 14.1788 86.3379 14.1788C86.4939 14.1606 86.652 14.174 86.8026 14.2182C86.9396 14.2909 86.8919 14.4964 86.9271 14.6333C87.0701 15.2952 87.4015 15.9015 87.8814 16.3789C87.9748 16.4723 88.0702 16.5657 88.1677 16.6549C88.1834 16.6648 88.1968 16.6779 88.207 16.6934C88.2171 16.7089 88.2238 16.7265 88.2266 16.7448C88.2293 16.7631 88.2281 16.7818 88.223 16.7996C88.2178 16.8174 88.2089 16.8339 88.1968 16.848C88.1408 16.931 88.0951 17.0182 88.0453 17.1053L82.365 26.7712C82.2738 26.9269 82.1866 27.0867 82.0829 27.2693C81.9916 27.0867 81.9128 26.9269 81.8277 26.7691C81.5995 26.3374 81.3692 25.9057 81.1327 25.4781C81.0936 25.4213 81.0727 25.354 81.0727 25.2851C81.0727 25.2162 81.0936 25.1489 81.1327 25.0921C82.8284 22.1946 84.5185 19.2944 86.2031 16.3913C86.2467 16.3145 86.284 16.2336 86.3462 16.1111H85.8483C85.6575 16.1111 85.4666 16.1111 85.2757 16.1111C85.2193 16.1031 85.1618 16.114 85.1122 16.1421C85.0626 16.1703 85.0238 16.2142 85.0019 16.2668C84.5704 17.0036 84.1326 17.7384 83.699 18.4731L80.4937 23.8841C80.4502 23.9588 80.4232 24.0543 80.3132 24.1062L74.6226 14.2411Z" fill="#0072BC"/>
<path d="M96.1176 2.98303C96.1162 3.07636 96.0816 3.16614 96.0201 3.23625C95.2123 4.61996 94.4032 6.00919 93.5928 7.40397C93.0451 8.35042 92.5015 9.30103 91.9559 10.2475L91.8687 10.399C91.7526 10.5941 91.7505 10.6066 91.541 10.5277C91.14 10.3935 90.7188 10.3303 90.2962 10.3409C89.923 10.3569 89.554 10.4268 89.2008 10.5484C89.0078 10.6128 89.0058 10.6107 88.9103 10.4426C88.1317 9.06718 87.3544 7.68763 86.5785 6.30392C86.4208 6.02372 86.427 6.0175 86.7507 6.0175C87.2984 6.0175 87.8461 6.0175 88.3938 6.0175C88.4579 6.01016 88.5226 6.02379 88.5783 6.05634C88.6341 6.08889 88.6778 6.13861 88.7029 6.19807C89.2029 7.10716 89.7402 7.9955 90.2609 8.89629C90.306 8.98753 90.3663 9.07037 90.4393 9.14121L92.9517 4.77009H92.6675C90.4435 4.77009 88.2216 4.77009 85.9976 4.77009C85.9098 4.78187 85.8206 4.76526 85.743 4.72269C85.6653 4.68012 85.6033 4.61381 85.5661 4.53347C84.7362 3.10757 83.9064 1.68789 83.0599 0.266132C83.0148 0.214173 82.9891 0.148139 82.9873 0.0793324C83.0288 0.029519 83.091 0.0544257 83.1429 0.0544257L88.0203 0.0274435C89.8045 0.0274435 91.5866 0.0274435 93.3708 0.00461235C94.4081 -0.00576543 95.4267 0.00461235 96.4557 0.00461235C96.9101 0.00461235 97.3665 0.029519 97.8167 0.0419723C97.8623 0.116692 97.8001 0.156128 97.7731 0.199715C97.491 0.658412 97.2026 1.11296 96.9225 1.57373C96.8962 1.62813 96.8538 1.67318 96.8012 1.70285C96.7485 1.73253 96.6881 1.74541 96.6279 1.73978C95.9309 1.7294 95.2338 1.7294 94.5388 1.7294H86.4996C86.413 1.7171 86.3247 1.72276 86.2403 1.746C86.2154 1.79997 86.2403 1.83318 86.259 1.87054C86.4208 2.17772 86.5888 2.4932 86.7403 2.79623C86.7626 2.8577 86.8058 2.90939 86.8623 2.94237C86.9187 2.97535 86.9849 2.98754 87.0494 2.97681C87.2071 2.96435 87.3647 2.97681 87.5224 2.97681H95.8831L96.1176 2.98303Z" fill="#0072BC"/>
<path d="M84.6285 24.8286C84.7571 24.6024 84.8546 24.4135 84.9583 24.2433L88.9001 17.4479C88.9222 17.4131 88.9423 17.3771 88.9603 17.34C89.0163 17.2258 89.0827 17.1968 89.2175 17.2445C89.973 17.5174 90.7994 17.5218 91.5577 17.257C91.7797 17.1822 91.7838 17.1843 91.9021 17.3981C92.2278 17.9855 92.5473 18.5749 92.8772 19.1603C93.3045 19.9178 93.7402 20.6713 94.1717 21.4268C94.2236 21.5202 94.2713 21.6156 94.3252 21.7236C94.173 21.7709 94.0132 21.7885 93.8543 21.7755C93.373 21.7755 92.8917 21.7755 92.4021 21.7755C92.3336 21.7831 92.2645 21.7687 92.2048 21.7344C92.1452 21.7 92.098 21.6475 92.0701 21.5845C91.5639 20.692 91.0453 19.8037 90.5308 18.9153C90.4851 18.8365 90.4353 18.7597 90.3627 18.6434C89.5059 20.0963 88.703 21.5492 87.8545 23.0021C87.929 23.0283 88.0084 23.0376 88.0869 23.0291H94.1033C94.3522 23.0291 94.6012 23.0291 94.8501 23.0187C94.9144 23.0098 94.9799 23.0222 95.0365 23.054C95.0931 23.0859 95.1377 23.1355 95.1634 23.1951C95.6323 24.0046 96.1094 24.812 96.5824 25.6194C96.9455 26.2421 97.3106 26.8647 97.6716 27.4874C97.7266 27.5518 97.7607 27.6314 97.7691 27.7157C97.7131 27.7634 97.6446 27.7406 97.5845 27.7406C95.6177 27.7406 93.6427 27.7406 91.6863 27.7614C90.566 27.7759 89.4478 27.7614 88.3275 27.778C86.5869 27.8049 84.8442 27.778 83.1036 27.7904C83.0538 27.7904 83.0061 27.7904 82.9605 27.7904C82.9148 27.7074 82.9771 27.6597 83.0103 27.6078C83.2883 27.1553 83.5766 26.7111 83.8401 26.2524C83.8734 26.1878 83.9256 26.1349 83.9897 26.1008C84.0539 26.0667 84.1269 26.053 84.199 26.0615C87.1837 26.0698 90.1698 26.0739 93.1572 26.0739H94.5203C94.5248 25.9751 94.4939 25.878 94.4331 25.8C94.3066 25.5488 94.1676 25.3018 94.0472 25.0465C94.0215 24.9743 93.9719 24.913 93.9067 24.8726C93.8415 24.8323 93.7645 24.8153 93.6883 24.8244C92.9269 24.8369 92.1635 24.8244 91.4063 24.8244H84.6285V24.8286Z" fill="#0072BC"/>
<path d="M93.0056 13.9982C93.0044 14.5119 92.851 15.0137 92.5649 15.4402C92.2787 15.8667 91.8726 16.1988 91.3979 16.3946C90.9232 16.5903 90.4011 16.6409 89.8977 16.5399C89.3942 16.4389 88.932 16.1909 88.5694 15.8273C88.2067 15.4636 87.96 15.0006 87.8602 14.4967C87.7605 13.9928 87.8123 13.4706 88.0091 12.9961C88.2059 12.5217 88.5388 12.1162 88.9658 11.8309C89.3928 11.5456 89.8948 11.3934 90.4082 11.3934C90.7506 11.3906 91.0901 11.4561 91.4069 11.5861C91.7237 11.7161 92.0114 11.908 92.2533 12.1505C92.4951 12.393 92.6862 12.6814 92.8154 12.9986C92.9445 13.3158 93.0092 13.6557 93.0056 13.9982V13.9982Z" fill="#F79414"/>
<path d="M74.0334 4C74.1226 4.31548 73.9961 4.60399 73.9131 4.89249C73.8799 5.00872 73.7388 5.0108 73.6392 5.03778C73.1289 5.17684 72.6165 5.31175 72.104 5.45289L65.9341 7.0822C65.7266 7.13824 65.5026 7.19428 65.2827 7.23787C65.1188 7.27108 65.0752 7.22334 65.1375 7.06767C65.3055 6.63388 65.5524 6.30387 66.0482 6.17518C67.4175 5.82026 68.7784 5.43006 70.1435 5.05438L73.7741 4.04774C73.8011 4.0166 73.8508 4.03528 73.8757 4H74.0334Z" fill="#0072BC"/>
<path d="M74.3114 5.46539C74.3004 5.56302 74.2655 5.65643 74.2097 5.73729C73.772 6.63808 73.2844 7.51396 72.8114 8.39815C72.75 8.52423 72.6629 8.63607 72.5557 8.7265C72.4485 8.81693 72.3236 8.88395 72.189 8.92326C71.133 9.23667 70.0667 9.51272 68.9962 9.77009C68.546 9.87802 68.0917 9.97765 67.6373 10.069C67.4506 10.1084 67.2805 10.1997 67.0896 10.2267C66.988 10.2412 66.988 10.3222 67.017 10.399C67.0673 10.5142 67.1375 10.6196 67.2245 10.7103C67.5656 11.1161 67.8613 11.558 68.1062 12.0283C68.5583 12.8737 68.7605 13.8305 68.6891 14.7867C68.6663 15.1416 68.5937 15.4903 68.5501 15.8452C68.5424 15.8939 68.5284 15.9413 68.5086 15.9864C68.1216 16.9935 67.5958 17.9415 66.9465 18.8029C66.5149 19.3829 65.9881 19.8854 65.3884 20.289C65.0667 20.4976 64.693 20.6119 64.3096 20.619C63.5399 20.6377 62.7682 20.6419 61.9964 20.619C61.2729 20.5685 60.577 20.3209 59.984 19.903C59.2469 19.4327 58.6335 18.7921 58.1957 18.035C58.0194 17.7361 57.8659 17.4123 57.6999 17.1176C57.6787 17.0552 57.6388 17.0009 57.5858 16.9619C57.5058 17.0058 57.4353 17.065 57.3783 17.1362C56.814 17.7112 56.3057 18.3359 55.7705 18.9357C55.3078 19.4567 54.8535 19.9735 54.4012 20.5132C54.368 20.5544 54.3255 20.5871 54.2772 20.6087C54.2288 20.6304 54.1761 20.6403 54.1232 20.6377C52.5154 20.6377 50.9055 20.6543 49.2977 20.6169C49.0865 20.6264 48.8753 20.5962 48.6753 20.5277C48.6867 20.439 48.7294 20.3573 48.7956 20.2973C49.5466 19.3571 50.2976 18.4293 51.0445 17.4766C51.0862 17.4171 51.1424 17.3693 51.2077 17.3377C51.2731 17.3061 51.3455 17.2918 51.4179 17.2961C52.6627 17.2961 53.9241 17.2961 55.1751 17.2961C55.2477 17.3014 55.3204 17.2875 55.386 17.2558C55.4515 17.2241 55.5076 17.1757 55.5485 17.1155C56.2601 16.1877 56.9572 15.2475 57.7165 14.3591C57.841 14.2159 57.9737 14.0769 58.1107 13.944C58.2051 13.8503 58.3171 13.7762 58.4403 13.7259C58.5635 13.6757 58.6954 13.6504 58.8285 13.6514C59.0712 13.6514 59.1459 13.7053 59.2206 13.9461C59.2677 14.1136 59.2983 14.2853 59.3119 14.4588C59.3297 14.7978 59.3769 15.1346 59.4529 15.4654C59.6319 16.1388 60.0706 16.7136 60.6728 17.0636C60.8665 17.1791 61.0864 17.2433 61.3118 17.2504C62.4549 17.3189 63.5939 17.2898 64.7432 17.2878C64.9901 17.2878 65.239 17.2566 65.4859 17.2483C65.6194 17.245 65.7502 17.2109 65.8683 17.1486C65.9863 17.0863 66.0883 16.9976 66.1664 16.8892C66.4114 16.5645 66.5872 16.1929 66.683 15.7975C66.8261 15.3272 66.8623 14.8307 66.7888 14.3446C66.7447 14.0904 66.6337 13.8526 66.4672 13.6555C65.9949 13.0953 65.4 12.6515 64.7287 12.3583C64.2675 12.1524 63.7892 11.9871 63.2993 11.8643C63.0813 11.809 62.8672 11.7397 62.6582 11.6568C62.4072 11.5551 62.3885 11.5073 62.5068 11.2686C62.9072 10.4675 63.3366 9.68292 63.7619 8.89628C63.9071 8.62646 64.0648 8.36286 64.1976 8.08681C64.2287 8.0206 64.2753 7.96284 64.3335 7.91841C64.3916 7.87398 64.4596 7.84418 64.5316 7.83152C65.3034 7.64265 66.0751 7.44547 66.8448 7.25037C69.0052 6.70519 71.1642 6.15793 73.3218 5.6086C73.6101 5.53596 73.913 5.52973 74.1973 5.43425C74.2174 5.43043 74.2381 5.43124 74.2579 5.43664C74.2777 5.44203 74.296 5.45187 74.3114 5.46539V5.46539Z" fill="#0072BC"/>
<path d="M34.7298 20.6315C33.3938 20.6315 32.0598 20.6315 30.7237 20.6315C30.6448 20.6369 30.5657 20.6228 30.4934 20.5906C30.421 20.5584 30.3577 20.509 30.3088 20.4467C29.4022 19.409 28.4873 18.3836 27.5765 17.3542C27.4873 17.2545 27.3919 17.1632 27.3048 17.0636C27.2176 16.964 27.1678 16.993 27.0973 17.076C26.9677 17.2584 26.8539 17.4514 26.7571 17.653C26.1286 18.8838 25.0807 19.849 23.8028 20.3741C23.3054 20.5637 22.7744 20.6492 22.2427 20.6252C21.5311 20.6252 20.8174 20.6252 20.1038 20.6252C20.0551 20.6303 20.0059 20.6228 19.9609 20.6035C19.9159 20.5843 19.8765 20.5539 19.8465 20.5152C18.9254 19.3405 17.9296 18.2321 16.9898 17.0677C16.7688 16.7988 16.5664 16.5152 16.384 16.2188C16.1362 15.8337 15.9853 15.3943 15.9442 14.9382C15.8717 14.1524 15.942 13.3599 16.1516 12.5991C16.4338 11.663 17.0375 10.9573 17.7926 10.3741C18.3734 9.94553 18.9996 9.5822 19.6598 9.29063C19.755 9.23181 19.8684 9.20969 19.9787 9.22841C20.0891 9.24713 20.1888 9.3054 20.2594 9.39233C20.5353 9.68084 20.8278 9.94858 21.112 10.2226C21.3963 10.4965 21.6867 10.7954 21.973 11.0839C22.0322 11.1418 22.0883 11.2027 22.141 11.2666C22.3008 11.4617 22.3029 11.4741 22.0767 11.5862C21.8506 11.6983 21.5747 11.7938 21.3216 11.9017C20.7012 12.1509 20.1121 12.472 19.5664 12.8585C19.074 13.1855 18.6619 13.6197 18.3611 14.1288C18.1836 14.426 18.0747 14.7592 18.0424 15.1039C18.0101 15.4486 18.0552 15.7962 18.1744 16.1213C18.2589 16.3458 18.3616 16.5631 18.4814 16.7709C18.5466 16.8856 18.6383 16.9831 18.7487 17.0553C18.8591 17.1275 18.9851 17.1723 19.1163 17.186C19.4937 17.2382 19.8742 17.2646 20.2552 17.2649C21.0332 17.2815 21.8133 17.2774 22.5933 17.2649C22.9245 17.2575 23.2549 17.2305 23.5829 17.184C23.9903 17.1328 24.3643 16.9324 24.6327 16.6215C25.0828 16.1594 25.344 15.5457 25.365 14.9009C25.3698 14.6442 25.3934 14.3882 25.4355 14.135C25.4483 14.0311 25.4881 13.9324 25.5511 13.8488C25.6141 13.7652 25.698 13.6997 25.7943 13.6589C25.8906 13.6181 25.996 13.6034 26.0999 13.6163C26.2037 13.6292 26.3023 13.6692 26.3857 13.7323C26.6118 13.8872 26.815 14.0731 26.9894 14.2844C27.5496 14.9071 28.0454 15.5837 28.5578 16.2458C28.7798 16.5343 29.006 16.8207 29.2217 17.1134C29.2512 17.1575 29.2914 17.1935 29.3386 17.2178C29.3858 17.2421 29.4384 17.254 29.4914 17.2525C30.1698 17.2732 30.8503 17.2753 31.5287 17.2774H40.4371C40.684 17.2774 40.9329 17.2774 41.1819 17.2919C41.24 17.2932 41.2977 17.3009 41.3541 17.3147C41.398 17.3193 41.4399 17.336 41.4749 17.3629C41.5099 17.3899 41.5368 17.426 41.5525 17.4673C41.5682 17.5086 41.5721 17.5535 41.5638 17.5969C41.5555 17.6404 41.5354 17.6806 41.5055 17.7132C41.4271 17.8306 41.3404 17.9423 41.2462 18.0474C40.5471 18.8008 39.8811 19.5833 39.2193 20.3699C39.1529 20.461 39.0648 20.534 38.963 20.5822C38.8611 20.6305 38.7488 20.6524 38.6363 20.646C37.3335 20.6232 36.0306 20.6315 34.7298 20.6315Z" fill="#0072BC"/>
<path d="M0.0109468 17.0407C-0.00150095 16.5259 -0.00565019 16.0029 0.0109468 15.4964C0.0655794 15.2456 0.139092 14.9993 0.230856 14.7596C0.479811 14.1888 0.952824 13.9439 1.53372 13.8588C1.60232 13.8465 1.67258 13.8465 1.74118 13.8588C1.76008 13.8588 1.77868 13.8635 1.79526 13.8726C1.81183 13.8817 1.82585 13.8948 1.83599 13.9107C1.84614 13.9267 1.85208 13.9449 1.85328 13.9638C1.85448 13.9827 1.85088 14.0015 1.84284 14.0186C1.79512 14.1785 1.74118 14.3341 1.69761 14.4939C1.60803 14.813 1.59555 15.1487 1.6612 15.4735C1.72685 15.7983 1.86875 16.1028 2.07519 16.3619C2.32239 16.6729 2.60744 16.9518 2.92371 17.1922C2.99458 17.2491 3.08396 17.278 3.17474 17.2731C4.21067 17.2537 5.24798 17.2371 6.28667 17.2233C6.84267 17.2233 7.39867 17.2025 7.94637 17.2233C8.06014 17.2342 8.17461 17.2115 8.27563 17.158C8.37665 17.1045 8.4598 17.0226 8.51481 16.9223C8.8018 16.5374 9.01301 16.1014 9.1372 15.6376C9.30939 14.8364 9.15794 14.1307 8.53763 13.562C8.04234 13.0811 7.45627 12.7036 6.81362 12.4516C6.59588 12.3785 6.38709 12.281 6.19124 12.161C6.14809 12.1439 6.10893 12.1182 6.07617 12.0853C6.04342 12.0524 6.01778 12.0131 6.00085 11.9699C5.98392 11.9267 5.97606 11.8804 5.97776 11.834C5.97947 11.7877 5.99069 11.7421 6.01075 11.7003C6.06628 11.5005 6.15921 11.3132 6.2846 11.1482C6.57665 10.7346 6.91647 10.357 7.29701 10.0232C7.81387 9.58632 8.45286 9.31959 9.12682 9.2594C9.71323 9.20962 10.302 9.19299 10.8902 9.20958C12.664 9.19921 14.4399 9.20958 16.2137 9.20958H16.4896C16.5208 9.32374 16.4378 9.37355 16.3942 9.43374C15.9461 10.044 15.4357 10.6002 14.942 11.1731C14.6183 11.5487 14.2843 11.9182 13.9628 12.298C13.9132 12.3595 13.8497 12.4083 13.7776 12.4405C13.7054 12.4726 13.6267 12.4871 13.5478 12.4827C12.7782 12.4973 12.0064 12.4952 11.2388 12.5512C11.1145 12.5556 10.9908 12.5716 10.8695 12.599C10.716 12.6363 10.7035 12.655 10.7367 12.8065C10.7699 12.958 10.7907 13.0328 10.8218 13.1448C11.0201 13.9084 11.0778 14.7018 10.9919 15.4861C10.9744 15.6175 10.9661 15.7499 10.967 15.8825C10.9716 15.9856 10.9545 16.0885 10.917 16.1847C10.8795 16.2808 10.8223 16.3681 10.7492 16.4408C10.0286 17.2793 9.30247 18.1193 8.57083 18.9605C8.13308 19.4691 7.69326 19.9776 7.26174 20.4923C7.21947 20.5469 7.16387 20.5897 7.10029 20.6166C7.03671 20.6435 6.96728 20.6536 6.89868 20.6459C6.38625 20.6272 5.87175 20.6272 5.35724 20.6231C4.94232 20.6231 4.51287 20.6023 4.09172 20.5899C3.50304 20.558 2.92828 20.3986 2.40713 20.1229C1.81718 19.8537 1.29777 19.4511 0.889868 18.9469C0.481964 18.4426 0.196709 17.8505 0.0565884 17.2171C0.0441407 17.1527 0.0275437 17.0967 0.0109468 17.0407Z" fill="#0072BC"/>
<path d="M40.3457 20.6316C40.3684 20.5395 40.4183 20.4563 40.4889 20.3929C41.3298 19.4105 42.1693 18.4273 43.0074 17.4435C43.0479 17.393 43.0999 17.353 43.1592 17.3269C43.2184 17.3009 43.2831 17.2896 43.3477 17.2941C44.551 17.2941 45.7535 17.2892 46.9554 17.2796C47.2521 17.2796 47.5509 17.2588 47.8475 17.2401C47.9644 17.2368 48.0787 17.2057 48.1812 17.1494C48.2837 17.0931 48.3712 17.0132 48.4367 16.9163C48.7394 16.508 48.9142 16.019 48.9388 15.5112C48.9388 15.3534 48.9388 15.1957 48.9388 15.038C48.9599 14.6703 48.8438 14.3079 48.6131 14.0209C48.2869 13.5904 47.894 13.2148 47.4492 12.9084C46.9115 12.5204 46.3266 12.2023 45.7086 11.962C45.4923 11.8854 45.2838 11.7881 45.0862 11.6714C45.0417 11.6528 45.0023 11.624 44.971 11.5873C44.9397 11.5505 44.9175 11.507 44.9062 11.4601C44.8949 11.4132 44.8948 11.3643 44.9059 11.3174C44.9169 11.2704 44.9389 11.2267 44.97 11.1899C45.0703 11.0383 45.1879 10.8989 45.3206 10.7748C45.8393 10.2372 46.4077 9.75359 46.9554 9.24716C46.9812 9.21514 47.0176 9.19351 47.058 9.18626C47.0984 9.17902 47.1401 9.18664 47.1753 9.20772C48.0052 9.62283 48.835 10.0255 49.5321 10.6606C50.2024 11.236 50.6989 11.9872 50.9657 12.8296C51.0297 13.0695 51.0652 13.3161 51.0715 13.5643C51.1069 14.1435 51.0777 14.7247 50.9844 15.2974C50.9277 15.6333 50.8042 15.9545 50.6213 16.2418C50.2547 16.8007 49.8513 17.3346 49.4139 17.84C48.6712 18.7304 47.9201 19.6166 47.1795 20.5091C47.1456 20.5545 47.1009 20.5906 47.0494 20.6142C46.9979 20.6377 46.9414 20.648 46.8849 20.644H40.3457V20.6316Z" fill="#0072BC"/>
<path d="M36.2524 14.1184L34.5346 15.839C34.4021 15.7361 34.2816 15.6184 34.1757 15.4883C33.7608 15.0732 33.3334 14.6414 32.9143 14.218C32.7857 14.0873 32.7836 14.081 32.9019 13.9648C33.3514 13.5276 33.8043 13.091 34.2607 12.6551C34.2971 12.6211 34.3359 12.5899 34.3769 12.5617C34.5699 12.4268 34.6217 12.4289 34.7794 12.5949C35.2109 13.0536 35.6632 13.4937 36.1134 13.9316C36.2379 14.0541 36.2399 14.0541 36.3603 13.9316C36.7088 13.5995 37.0532 13.2653 37.3976 12.9312C37.5241 12.8138 37.6633 12.7108 37.8125 12.624C37.8582 12.5875 37.9158 12.5694 37.9742 12.5732C38.0325 12.5771 38.0873 12.6026 38.1278 12.6448C38.2627 12.7693 38.4141 12.8751 38.5428 13.0059C38.8622 13.3421 39.1651 13.6867 39.4846 14.0291C39.6153 14.1724 39.6195 14.1807 39.4846 14.3093C39.0089 14.784 38.5324 15.2565 38.0552 15.727C37.9328 15.8473 37.9266 15.8453 37.8 15.727C37.3436 15.2724 36.8851 14.8137 36.4308 14.355C36.3669 14.2796 36.3073 14.2006 36.2524 14.1184V14.1184Z" fill="#0072BC"/>
<path d="M10.2346 18.7759L11.9503 17.0657C12.0333 17.0906 12.0873 17.1695 12.1578 17.2338L13.5312 18.6057C13.664 18.7365 13.6681 18.7365 13.7988 18.6057L15.2075 17.1985C15.3569 17.0491 15.3589 17.0491 15.5124 17.1985C15.9958 17.678 16.4751 18.1595 16.9647 18.641C17.085 18.7635 17.085 18.7676 16.9647 18.8922C16.4792 19.3792 15.9951 19.8635 15.5124 20.3451C15.3797 20.4779 15.3755 20.4779 15.2448 20.3451L13.8175 18.9544C13.664 18.8029 13.6619 18.8029 13.5125 18.9544C13.0423 19.4235 12.5727 19.8933 12.1039 20.3637C11.942 20.5256 11.9545 20.5007 11.8176 20.3637C11.3183 19.8711 10.8231 19.3758 10.3321 18.8776C10.2906 18.8486 10.2657 18.8112 10.2346 18.7759Z" fill="#0072BC"/>
<path d="M37.9743 11.4158C37.9743 11.4718 37.9204 11.4988 37.8851 11.532C37.5075 11.9042 37.1292 12.2751 36.7503 12.6445C36.632 12.7608 36.5055 12.8666 36.3872 12.9808C36.3726 13.0009 36.3534 13.0173 36.3312 13.0286C36.3091 13.0399 36.2845 13.0458 36.2596 13.0458C36.2347 13.0458 36.2102 13.0399 36.188 13.0286C36.1658 13.0173 36.1467 13.0009 36.132 12.9808C35.937 12.7898 35.7296 12.6092 35.5325 12.4204C35.2365 12.1339 34.9405 11.8454 34.6445 11.5549C34.5159 11.4262 34.5138 11.4199 34.6321 11.3016C35.1217 10.8104 35.6134 10.3192 36.1071 9.82799C36.242 9.69308 36.2524 9.69308 36.381 9.82799C36.8913 10.3261 37.3976 10.8263 37.9058 11.3245C37.9328 11.3473 37.9681 11.3722 37.9743 11.4158Z" fill="#0072BC"/>
<path d="M13.4857 19.7183C13.5093 19.72 13.5323 19.7268 13.5531 19.7382C13.5739 19.7497 13.5919 19.7656 13.606 19.7847C14.1163 20.2953 14.6246 20.8059 15.137 21.3123C15.2408 21.414 15.1744 21.4638 15.1059 21.5323C14.7014 21.935 14.301 22.3418 13.8923 22.7423C13.7789 22.8839 13.6438 23.0065 13.4919 23.1056C13.3542 22.9997 13.2277 22.8801 13.1143 22.7486C12.716 22.3521 12.3197 21.9495 11.9255 21.5489C11.7865 21.4078 11.7865 21.4057 11.9255 21.2625C12.4055 20.7809 12.8861 20.3008 13.3674 19.822C13.4027 19.7826 13.4545 19.7452 13.4857 19.7183Z" fill="#0072BC"/>
</svg>
